<svg id="レイヤー_1" data-name="レイヤー 1" xmlns="http://www.w3.org/2000/svg" viewBox="0 0 80 80"><defs><style>.cls-1{fill:#fffcf1;}.cls-2{fill:#cecfcf;}.cls-2,.cls-3,.cls-4,.cls-5{stroke:#000;stroke-linecap:round;stroke-linejoin:round;stroke-width:0.22581px;}.cls-3{fill:#fff;}.cls-4{fill:#f0ea3a;}.cls-6{fill:none;}</style></defs><title>Scratch</title><rect class="cls-1" width="80" height="80"/><g id="SPLINE"><path class="cls-2" d="M46.67319,27.4a.43723.43723,0,0,0-.058-.09252.357.357,0,0,0-.1-.08651.42583.42583,0,0,0-.12924-.048.61278.61278,0,0,0-.14329-.00945.96686.96686,0,0,0-.16682.02247,2.78451,2.78451,0,0,0-.34023.11l-.30353.11322-.37131-.78286-.43856-.71548-.49164-.6228-.52538-.50717-.54214-.3737-.54008-.22828-.51685-.0727-.478.08428.28382-.107a4.683,4.683,0,0,1,.80171-.2094,2.511,2.511,0,0,1,.6361-.00665,2.71006,2.71006,0,0,1,.4354.09124,2.67611,2.67611,0,0,1,.342.12852,3.52567,3.52567,0,0,1,.69951.4237,4.76553,4.76553,0,0,1,.68072.64779,6.10371,6.10371,0,0,1,.54849.74051,7.77012,7.77012,0,0,1,.42263.76688c.077.16136.149.325.21189.493C46.61839,27.23891,46.64634,27.31868,46.67319,27.4Z"/></g><g id="LINE"><polygon class="cls-2" points="42.851 28.379 42.343 32.529 41.866 32.613 41.35 32.54 40.81 32.313 40.267 31.938 39.741 31.431 39.251 30.81 38.812 30.093 38.44 29.31 38.949 25.16 39.427 25.076 39.944 25.149 40.483 25.376 41.026 25.751 41.551 26.258 42.043 26.881 42.481 27.596 42.851 28.379"/></g><g id="LINE-2" data-name="LINE"><polygon class="cls-2" points="45.432 27.409 42.851 28.379 42.481 27.596 42.043 26.881 41.551 26.258 41.026 25.751 40.483 25.376 39.944 25.149 39.427 25.076 38.949 25.16 41.528 24.19 42.006 24.106 42.523 24.179 43.063 24.407 43.605 24.781 44.131 25.288 44.622 25.911 45.061 26.626 45.432 27.409"/></g><g id="LINE-3" data-name="LINE"><polygon class="cls-2" points="45.432 27.409 44.924 31.559 42.343 32.529 42.851 28.379 45.432 27.409"/></g><g id="SPLINE-2" data-name="SPLINE"><path class="cls-2" d="M46.76768,27.95956c.00045.14433-.008.293-.02035.44374-.01459.16918-.03435.34066-.053.51056-.0238.1722-.04623.34415-.07382.51841-.02395.15556-.05328.31208-.09045.47136a3.38978,3.38978,0,0,1-.14335.46264,2.124,2.124,0,0,1-.19119.37249,1.6495,1.6495,0,0,1-.13325.17344,1.52525,1.52525,0,0,1-.1521.15318,1.78247,1.78247,0,0,1-.33817.23179,3.701,3.701,0,0,1-.34457.14823l-.30355.11323.50823-4.14943.30353-.11322a2.78451,2.78451,0,0,1,.34023-.11.96686.96686,0,0,1,.16682-.02247.61278.61278,0,0,1,.14329.00945.42583.42583,0,0,1,.12924.048.357.357,0,0,1,.1.08651.43723.43723,0,0,1,.058.09252A.69913.69913,0,0,1,46.73,27.565,1.80942,1.80942,0,0,1,46.76768,27.95956Z"/></g><path class="cls-3" d="M27.75247,30.3114l-.0091.01132-.25664-.03806-.30291.08535-.30521.19821-.268.2833-.19449.33-.09533.33337.018.29118.12851.20921-1.07543-.88642-.41755-.34429-.104-.0858.59134-.89846.72293.59591a.96987.96987,0,0,1,1.14447-.4309l-1.04939-.86463.00744.00286.46148.381Z"/><path class="cls-3" d="M14.29514,21.00886l-.23789.21-.0506-.098-.00246.00182-.18056-.24446-.38175-.31451-.28311.25263.0277.05482-.09253.08157c-.06168-.10575-.12312-.21016-.18236-.31773l-.00024-.00134.81556-.72141Z"/><path class="cls-3" d="M13.65027,21.28085l.02515.18995-.02274.06787-.2098-.174-.029-.05459-.2148-.17872c-.03539-.059-.0708-.118-.10485-.17728l-.00024-.00135.09253-.08157-.0277-.05482.38014.31341Z"/><path class="cls-3" d="M12.387,21.101l-.00135.00023-.07914.07089-.91481-.89669.34111-.30173C11.94028,20.355,12.1594,20.73149,12.387,21.101Z"/><path class="cls-3" d="M13.7269,19.91221l-.81556.72141q-.3237-.57191-.6156-1.1605l.29294-.25992Z"/><path class="cls-3" d="M14.00419,21.12264l.04042.308-.1053.324-.23649.28885-.32912.21215-.37357.102-.36079-.02247-.29361-.14538-.14778-.20026-.033-.04555-.04042-.30806.0435-.13124-.01625-.00546L11.87,21.20044l-.47829-.92506.91481.89669.07914-.07089L12.387,21.101c.05867.09656.11846.19154.17961.28628l-.00135.00024-.00642.01085-.0649.19888.02492.18861.11136.15114.17661.08826.00293.00087.184.012.03935.00278.22917-.06263.0125-.00775.19084-.12252.09936-.12165.04554-.05662.02536-.07667-.00024-.00135.017-.053.02274-.06787-.02515-.18995-.11136-.15114-.38014-.31341.28311-.25263.38175.31451Z"/><path class="cls-3" d="M11.422,19.38421,6.3168,15.17214l-.10319-.07345-.06582-.01893-.0034-.00357.27623-.24447.01164-.00484.0647.02053.10322.07344,4.4255,3.6488.00024.00135Q11.21488,18.98128,11.422,19.38421Z"/><path class="cls-3" d="M13.27479,21.97047l-.0125.00775-.22917.06263-.03935-.00278c-.0358-.05339-.07137-.10543-.10716-.15882q-.16381-.244-.32-.492c-.06115-.09474-.12094-.18972-.17961-.28628-.2276-.36946-.44672-.746-.65419-1.1273l-.01853-.03423c-.10041-.18362-.19836-.36906-.29228-.55521q-.20645-.403-.39608-.81321l-.00024-.00135q-.22914-.48442-.43275-.98168a.51273.51273,0,0,1-.028-.1117.04872.04872,0,0,1,.016-.04308l.00246-.00183.013-.00506a.13308.13308,0,0,1,.0854.01965.75744.75744,0,0,1,.12467.08493,1.76484,1.76484,0,0,1,.14832.14046c.0495.05237.10019.11146.14684.17127a2.03266,2.03266,0,0,1,.123.17824c.03359.05656.059.10622.08309.15612A24.86825,24.86825,0,0,0,13.27479,21.97047Z"/><path class="cls-3" d="M13.565,21.7263l-.09936.12165-.19084.12252a24.86825,24.86825,0,0,1-1.96707-3.7935c-.02409-.0499-.0495-.09956-.08309-.15612a2.03266,2.03266,0,0,0-.123-.17824c-.04665-.05981-.09734-.1189-.14684-.17127a1.76484,1.76484,0,0,0-.14832-.14046.75744.75744,0,0,0-.12467-.08493.13308.13308,0,0,0-.0854-.01965l-.013.00506.28913-.23425.00523.006.00865-.014c.01448-.01227.0472,0,.08538.01966a.713.713,0,0,1,.12623.086,1.57394,1.57394,0,0,1,.14677.13935c.05108.05347.10016.11146.14681.17127a2.07236,2.07236,0,0,1,.12444.178c.03356.05657.05763.10647.08194.15773q.32259.77826.69778,1.532.29147.59007.6156,1.1605l.00024.00134c.05924.10757.12068.212.18236.31773l.00024.00135c.03405.05925.06946.11826.10485.17728.04751.08048.09637.16073.14523.241.06257.10282.12671.20674.192.30909Z"/><polygon class="cls-3" points="14.287 21.671 14.329 21.979 14.223 22.303 14.069 22.491 13.987 22.592 13.658 22.804 13.564 22.83 13.284 22.906 12.923 22.884 12.63 22.738 12.474 22.545 12.189 21.997 12.198 21.99 12.346 22.19 12.639 22.335 13 22.358 13.374 22.256 13.703 22.044 13.939 21.755 14.045 21.431 14.004 21.123 14.007 21.121 14.057 21.219 14.264 21.618 14.287 21.671"/><path class="cls-3" d="M12.99377,22.03807l-.184-.012-.00293-.00087.03613-.07856.04231-.06717.00134-.00023C12.9224,21.93264,12.958,21.98468,12.99377,22.03807Z"/><path class="cls-3" d="M12.88661,21.87925l-.00134.00023-.04231.06717-.03613.07856-.17661-.08826-.11136-.15114-.02492-.18861.0649-.19888.00642-.01085.00135-.00024Q12.72268,21.63463,12.88661,21.87925Z"/><path class="cls-3" d="M13.41383,21.31l-.06957.06226c-.04886-.08025-.09772-.1605-.14523-.241Z"/><path class="cls-3" d="M13.65268,21.53867l-.017.053.00024.00135-.09967.08838c-.06525-.10235-.12939-.20627-.192-.30909l.06957-.06226.029.05459Z"/><path class="cls-3" d="M11.71428,19.93942,6.59959,15.7207l-.12426-.11416-.12743-.14-.1097-.14172L6.16085,15.201,6.129,15.115l.01879-.03524.06582.01893.10319.07345,5.1052,4.21207C11.51592,19.57036,11.61387,19.7558,11.71428,19.93942Z"/><polygon class="cls-3" points="25.463 29.799 24.29 29.421 23.05 28.398 24.035 28.622 24.22 28.773 24.223 28.775 24.158 28.85 24.872 29.439 25.106 29.505 25.114 29.512 25.463 29.799"/><polygon class="cls-3" points="25.463 29.799 25.462 29.8 24.87 30.699 24.849 30.73 24.638 31.051 24.195 31.722 23.189 31.092 24.29 29.421 25.463 29.799"/><path class="cls-3" d="M23.54286,30.21782l-.18728.28433-.14288-.06228q-.58737-.2484-1.156-.532l-.00135.00023a21.86369,21.86369,0,0,1-4.187-2.71339l-.00245.00182-.71343-.58925a21.724,21.724,0,0,1-3.58541-3.76639l-.00325-.01054.094-.02628.32914-.21216.08223-.10058.01.00935a21.58315,21.58315,0,0,0,3.71692,4.12641l.00315.00222a21.65734,21.65734,0,0,0,5.6249,3.49008Z"/><polygon class="cls-3" points="23.741 29.639 23.569 29.899 22.709 29.53 23.026 29.05 23.741 29.639"/><path class="cls-3" d="M24.28961,29.42108l-1.10068,1.67138-1.24-1.024.1064-.16039.00135-.00023q.56847.283,1.156.532l.11872.09847.02416-.03619.18728-.28433-.11871-.09847.14451-.21987.172-.26081-.7148-.589-.31649.48067-.11847-.09713-.02307.03461c-.05822-.02305-.11689-.04881-.17425-.0748l.6563-.9946Z"/><path class="cls-3" d="M23.56866,29.89948l-.14451.21987a21.65734,21.65734,0,0,1-5.6249-3.49008A21.81356,21.81356,0,0,0,22.39359,29.393c.05736.026.116.05175.17425.0748.047.02227.09346.04184.14154.06252Z"/><path class="cls-3" d="M27.32908,29.96535a.96987.96987,0,0,0-1.14447.4309l-.72293-.59591.00111-.00159-.34911-.28693.13174-.14265.294-.22261.30055-.12241.27263-.005.16713.0816Z"/><polygon class="cls-3" points="26.738 29.162 26.749 29.485 26.287 29.104 26.28 29.101 26.113 29.019 25.84 29.024 25.539 29.147 25.245 29.369 25.114 29.512 25.106 29.505 24.872 29.439 25.064 29.216 25.403 28.932 25.762 28.745 26.106 28.673 26.401 28.724 26.523 28.819 26.619 28.892 26.738 29.162"/><polygon class="cls-3" points="25.392 31.129 25.112 31.178 24.817 31.128 24.638 31.051 24.849 30.73 24.974 30.785 25.392 31.129"/><polygon class="cls-3" points="26.534 28.805 26.523 28.819 26.401 28.724 26.106 28.673 25.762 28.745 25.403 28.932 25.064 29.216 24.872 29.439 24.158 28.85 24.223 28.775 24.351 28.627 24.69 28.343 25.048 28.156 25.392 28.084 25.687 28.135 25.82 28.216 26.534 28.805"/><polygon class="cls-3" points="27.997 30.735 27.957 31.052 27.809 31.39 27.574 31.702 27.283 31.947 26.974 32.091 26.689 32.115 26.467 32.015 26.339 31.806 26.321 31.515 26.416 31.182 26.611 30.852 26.879 30.568 27.184 30.37 27.487 30.285 27.743 30.323 27.921 30.48 27.997 30.735"/><path class="cls-3" d="M43.93394,43.66131l-.008.00974-.25662-.03806-.30132.08645-.30682.19712-.268.28329-.19427.33137-.094.33315.01779.28982.12853.2092L40.281,43.40987l-.06651-.07019-.06319-.12215-.03175-.14852.00517-.16752.03876-.18178.07131-.18613.10078-.18438.12739-.1752,1.9042,1.57058a.97143.97143,0,0,1,1.14581-.43114Z"/><polygon class="cls-3" points="44.179 44.083 44.139 44.4 43.993 44.738 43.757 45.05 43.465 45.295 43.156 45.44 42.872 45.463 42.651 45.363 42.523 45.154 42.505 44.864 42.599 44.531 42.793 44.2 43.061 43.917 43.368 43.719 43.669 43.633 43.926 43.671 44.104 43.829 44.179 44.083"/><path class="cls-3" d="M43.513,43.31344a.97143.97143,0,0,0-1.14581.43114L40.463,42.174l1.14582-.43113,1.43612,1.18381Z"/><g id="SPLINE-3" data-name="SPLINE"><path class="cls-4" d="M43.18262,28.4635l-.4815,3.9309L42.632,32.955l-3.33864,1.25514-.00063.00428L39.1399,35.466l-4.46878,1.68075-1.362.51228-4.18522,1.57243a2.77724,2.77724,0,0,1-.49587.14852.81028.81028,0,0,1-.241.00361.39828.39828,0,0,1-.17622-.07028l-.01157-.01045a.15825.15825,0,0,1-.02288-.01958.41323.41323,0,0,1-.0791-.118.69018.69018,0,0,1-.05677-.22741,2.53877,2.53877,0,0,1,.02336-.50535l.5504-4.49287a3.17244,3.17244,0,0,1,.104-.53622,1.78656,1.78656,0,0,1,.12044-.29338,1.53743,1.53743,0,0,1,.37417-.46862,1.80371,1.80371,0,0,1,.26309-.18523,3.50407,3.50407,0,0,1,.50657-.22956l10.0146-3.7652L39.844,29.71864Z"/></g><g id="LINE-4" data-name="LINE"><path class="cls-4" d="M37.737,26.59684l-1.26577-1.04446-.99568-.81995-9.95211,3.74169-.00135.00024-.06115.02327a3.38772,3.38772,0,0,0-.50929.23,1.94065,1.94065,0,0,0-.26282.18658q-.07229.06273-.13905.13282l-.00132.00024c-.02424.02787-.04739.05416-.07005.08315a1.55323,1.55323,0,0,0-.16375.25242,1.89157,1.89157,0,0,0-.11909.29313,2.47575,2.47575,0,0,0-.08181.38653c-.00783.05-.01459.09837-.02107.14811l-.55067,4.49152a2.8159,2.8159,0,0,0-.0236.504.623.623,0,0,0,.05542.22765.63133.63133,0,0,0,.10606.13681l-.00381.002.00159.00111,4.49867,3.70949a.41337.41337,0,0,1-.0791-.118.691.691,0,0,1-.05678-.22742,2.544,2.544,0,0,1,.02337-.50534l.5504-4.49287a3.16893,3.16893,0,0,1,.104-.53623,1.78384,1.78384,0,0,1,.12044-.29337,1.53761,1.53761,0,0,1,.37414-.46862,1.80541,1.80541,0,0,1,.26309-.18523,3.50592,3.50592,0,0,1,.50656-.22956l10.01461-3.76521ZM26.398,35.44958l-1.51675.57151-.83351-.68749L24.24,33.76268l1.51834-.5704.83213.68773Z"/><polygon class="cls-4" points="26.591 33.88 25.074 34.45 24.24 33.763 25.758 33.192 26.591 33.88"/><path class="cls-4" d="M25.07352,34.45018l-.19228,1.57091,1.51675-.57151L26.59051,33.88Zm1.11742.32919-.03971.15279-.08078.15587-.11377.14223-.13516.11547-.1436.07531-.13778.02985-.11863-.01935-.08808-.06638-.048-.10679-.0049-.138.03973-.15279.08079-.15587.11376-.14224L25.65,34.554l.1436-.07531.13775-.02984.11866.01934.08808.06639.048.10679Z"/><polygon class="cls-4" points="26.186 34.641 26.191 34.779 26.151 34.932 26.07 35.088 25.957 35.23 25.822 35.346 25.678 35.421 25.54 35.451 25.422 35.432 25.333 35.365 25.285 35.258 25.281 35.12 25.32 34.968 25.401 34.812 25.515 34.669 25.65 34.554 25.794 34.479 25.931 34.449 26.05 34.468 26.138 34.535 26.186 34.641"/><polygon class="cls-4" points="25.074 34.45 24.881 36.021 24.048 35.334 24.24 33.763 25.074 34.45"/></g><g id="LWPOLYLINE"><polygon class="cls-4" points="39.844 29.719 39.997 28.461 37.737 26.597 36.471 25.552 38.753 24.695 38.944 24.637 39.246 24.595 39.564 24.61 39.891 24.68 40.068 24.745 40.227 24.804 40.566 24.98 40.907 25.209 41.243 25.486 41.57 25.808 41.887 26.172 42.189 26.574 42.472 27.01 42.735 27.473 42.971 27.959 43.108 28.282 43.108 28.284 43.183 28.464 39.844 29.719"/></g><path class="cls-3" d="M31.65839,34.91126l1.90285,1.57081-.12628.1736-.10212.18463-.07132.18613-.03876.18178-.00358.16863.03016.14741.06318.12215.0701.06678-.00357.00341-2.38017-1.96288a.51848.51848,0,0,1-.1563-.50839l.09533-.33337.19428-.33138.268-.2833.30545-.19686.30291-.08535.25662.03806.09045.05625,2.35253,1.94-.00111.00159-1.90418-1.57057A.96986.96986,0,0,0,31.65839,34.91126Z"/><polygon class="cls-3" points="34.896 36.412 34.892 36.581 34.853 36.762 34.782 36.949 34.681 37.133 34.554 37.307 33.408 37.738 33.383 37.713 33.313 37.646 33.249 37.524 33.219 37.377 33.223 37.208 33.262 37.026 33.333 36.84 33.435 36.656 33.561 36.482 34.707 36.051 34.802 36.142 34.866 36.265 34.896 36.412"/><path class="cls-3" d="M32.80286,34.48037l-1.14447.43089A.96986.96986,0,0,1,32.80286,34.48037Z"/><polygon class="cls-3" points="34.707 36.051 33.561 36.482 31.658 34.911 32.803 34.48 34.707 36.051"/><path class="cls-2" d="M62.85368,40.74456a.402.402,0,0,0-.05589-.08872.37643.37643,0,0,0-.09995-.08651.43835.43835,0,0,0-.12793-.04826.65054.65054,0,0,0-.14327-.00945.98835.98835,0,0,0-.16818.02272,2.78112,2.78112,0,0,0-.3402.11l-.30331.11457-.37153-.78422-.43856-.71547-.49029-.623-.52676-.50693-.54213-.3737-.54008-.22828-.51683-.07271-.47669.08406.30355-.11323a4.70977,4.70977,0,0,1,.78061-.20289,2.44092,2.44092,0,0,1,.63638-.00531,2.47635,2.47635,0,0,1,.43516.08988,2.884,2.884,0,0,1,.342.12852,3.54335,3.54335,0,0,1,.69951.42371,4.76476,4.76476,0,0,1,.68068.64779,6.09564,6.09564,0,0,1,.5485.74051,7.40641,7.40641,0,0,1,.42288.76823c.0768.16.14893.325.21165.49167C62.80207,40.58566,62.82867,40.66566,62.85368,40.74456Z"/><g id="LINE-5" data-name="LINE"><polygon class="cls-2" points="61.615 40.759 59.035 41.729 58.664 40.945 58.225 40.229 57.734 39.606 57.208 39.099 56.666 38.725 56.126 38.497 55.609 38.424 55.131 38.509 57.712 37.539 58.189 37.455 58.706 37.527 59.246 37.756 59.788 38.129 60.315 38.636 60.805 39.259 61.243 39.975 61.615 40.759"/></g><g id="LINE-6" data-name="LINE"><polygon class="cls-2" points="59.035 41.729 58.527 45.877 58.049 45.961 57.532 45.888 56.992 45.662 56.45 45.288 55.925 44.781 55.433 44.158 54.995 43.442 54.623 42.658 55.131 38.509 55.609 38.424 56.126 38.497 56.666 38.725 57.208 39.099 57.734 39.606 58.225 40.229 58.664 40.945 59.035 41.729"/></g><g id="LINE-7" data-name="LINE"><polygon class="cls-2" points="61.615 40.759 61.106 44.907 58.527 45.877 59.035 41.729 61.615 40.759"/></g><g id="SPLINE-4" data-name="SPLINE"><path class="cls-2" d="M62.95024,41.3079c.00046.14432-.0078.29434-.02034.44373-.01459.16918-.03433.34066-.05275.51191-.02242.172-.04488.34392-.074.51707-.02394.15555-.05328.31207-.09044.47135a3.21774,3.21774,0,0,1-.14336.46264,2.06221,2.06221,0,0,1-.19117.37249,1.81071,1.81071,0,0,1-.1319.1732,1.54315,1.54315,0,0,1-.15346.15341,1.32509,1.32509,0,0,1-.16.124,1.69648,1.69648,0,0,1-.1768.10754,3.144,3.144,0,0,1-.34593.14847l-.30354.11322.50846-4.14807.30331-.11457a2.78112,2.78112,0,0,1,.3402-.11.98835.98835,0,0,1,.16818-.02272.65054.65054,0,0,1,.14327.00945.43835.43835,0,0,1,.12793.04826.37643.37643,0,0,1,.09995.08651.402.402,0,0,1,.05589.08872l.00183.00245a.69883.69883,0,0,1,.05709.16627A1.80226,1.80226,0,0,1,62.95024,41.3079Z"/></g><g id="SPLINE-5" data-name="SPLINE"><path class="cls-4" d="M59.36561,41.81206l-.48149,3.9309-.06914.56062-3.33864,1.25515-.00064.00428-.1528,1.25154L50.85411,50.4953l-1.362.51228L45.30691,52.58a2.77662,2.77662,0,0,1-.49586.14853.81035.81035,0,0,1-.241.00361.39824.39824,0,0,1-.17621-.07028l-.01158-.01045a.15817.15817,0,0,1-.02287-.01958.41317.41317,0,0,1-.0791-.118.69018.69018,0,0,1-.05678-.22741,2.53806,2.53806,0,0,1,.02337-.50535l.5504-4.49287a3.1724,3.1724,0,0,1,.104-.53622,1.78832,1.78832,0,0,1,.12044-.29338,1.53743,1.53743,0,0,1,.37417-.46862,1.803,1.803,0,0,1,.2631-.18523,3.50348,3.50348,0,0,1,.50656-.22956L56.18017,41.81,56.027,43.0672Z"/></g><g id="LINE-8" data-name="LINE"><path class="cls-4" d="M53.92,39.9454l-1.26577-1.04446-.99568-.81995-9.95211,3.74169-.00134.00023-.06115.02328a3.38727,3.38727,0,0,0-.50929.23,1.94011,1.94011,0,0,0-.26283.18658q-.07227.06273-.139.13282l-.00131.00023c-.02424.02788-.0474.05417-.07.08316a1.554,1.554,0,0,0-.16376.25242,1.89256,1.89256,0,0,0-.11909.29313,2.47666,2.47666,0,0,0-.08181.38653c-.00783.05-.01458.09837-.02107.14811l-.55067,4.49152a2.8159,2.8159,0,0,0-.0236.504.6229.6229,0,0,0,.05543.22764.63111.63111,0,0,0,.106.13682l-.00381.002.00159.00111,4.49868,3.70949a.413.413,0,0,1-.0791-.11795.691.691,0,0,1-.05678-.22742,2.54315,2.54315,0,0,1,.02336-.50534l.5504-4.49287a3.1709,3.1709,0,0,1,.104-.53623,1.786,1.786,0,0,1,.12044-.29338,1.53773,1.53773,0,0,1,.37414-.46861,1.80634,1.80634,0,0,1,.2631-.18524,3.50487,3.50487,0,0,1,.50656-.22955L56.18013,41.81ZM42.581,48.79813l-1.51675.57152-.83351-.68749.19232-1.57092,1.51833-.5704.83214.68773Z"/><polygon class="cls-4" points="42.774 47.229 41.257 47.799 40.423 47.111 41.941 46.541 42.774 47.229"/><path class="cls-4" d="M41.25652,47.79873l-.19229,1.57092,1.51675-.57152.19253-1.56956Zm1.11741.3292-.0397.15279-.08079.15586-.11376.14224-.13516.11547-.1436.07531-.13779.02985-.11863-.01935-.08807-.06638-.048-.10679-.00491-.138.03974-.15279.08078-.15587.11376-.14224.13517-.11547.14359-.07531.13776-.02984.11866.01934.08808.06639.048.10679Z"/><polygon class="cls-4" points="42.369 47.99 42.374 48.128 42.334 48.281 42.253 48.437 42.14 48.579 42.005 48.694 41.861 48.77 41.723 48.799 41.605 48.78 41.516 48.714 41.468 48.607 41.464 48.469 41.503 48.316 41.584 48.16 41.698 48.018 41.833 47.903 41.977 47.827 42.114 47.797 42.233 47.817 42.321 47.883 42.369 47.99"/><polygon class="cls-4" points="41.257 47.799 41.064 49.37 40.231 48.682 40.423 47.111 41.257 47.799"/></g><g id="LWPOLYLINE-2" data-name="LWPOLYLINE"><polygon class="cls-4" points="56.027 43.067 56.18 41.81 53.92 39.945 52.654 38.901 54.936 38.043 55.127 37.986 55.429 37.944 55.747 37.959 56.074 38.029 56.251 38.093 56.41 38.153 56.749 38.329 57.09 38.558 57.426 38.834 57.753 39.157 58.07 39.52 58.372 39.923 58.655 40.359 58.918 40.822 59.154 41.308 59.291 41.631 59.291 41.632 59.366 41.812 56.027 43.067"/></g><polygon class="cls-3" points="40.828 71.66 40.875 71.929 40.876 72.014 40.818 72.146 40.696 72.259 40.529 72.335 40.342 72.362 40.164 72.335 40.021 72.26 34.679 67.854 34.453 67.668 34.348 67.581 34.25 67.499 34.203 67.23 39.974 71.99 40.116 72.066 40.294 72.091 40.481 72.065 40.648 71.989 40.77 71.877 40.828 71.743 40.82 71.661 40.828 71.66"/><path class="cls-3" d="M47.841,48.25959l.89036.73439-.25146.36923-.1629.3911-.03727.24539-.01148-.00214-1.08544-.89576a.51547.51547,0,0,1-.15628-.50838l.094-.33314.1945-.33.268-.2833.30657-.19845.30155-.08511.25664.03806.09046.05625.44858.37076A.97143.97143,0,0,0,47.841,48.25959Z"/><polygon class="cls-3" points="35.164 66.27 33.891 67.1 32.682 66.189 32.826 66.094 33.581 65.603 34.194 65.203 34.791 65.861 34.963 66.049 35.164 66.27"/><polygon class="cls-3" points="33.891 67.1 34.091 68.237 32.92 67.538 32.682 66.189 33.891 67.1"/><polygon class="cls-3" points="32.848 67.129 32.895 67.398 28.043 70.564 27.842 70.654 27.617 70.686 27.403 70.655 27.232 70.565 27.129 70.429 27.113 70.37 27.076 70.161 27.081 70.16 27.184 70.295 27.356 70.385 27.57 70.417 27.794 70.384 27.995 70.293 32.848 67.129"/><polygon class="cls-3" points="34.453 67.668 34.372 67.721 34.348 67.581 34.453 67.668"/><polygon class="cls-3" points="35.164 66.27 35.295 67.016 34.957 66.737 34.203 67.23 34.25 67.499 34.348 67.581 34.372 67.721 34.453 67.668 34.679 67.854 34.091 68.237 33.891 67.1 35.164 66.27"/><polygon class="cls-3" points="40.813 71.61 40.82 71.661 40.828 71.743 40.77 71.877 40.648 71.989 40.481 72.065 40.294 72.091 40.116 72.066 39.974 71.99 34.203 67.23 34.957 66.737 35.295 67.016 40.728 71.497 40.813 71.61"/><polygon class="cls-3" points="51.344 51.631 49.86 51.322 49.523 51.044 49.529 51.037 49.562 51.065 49.565 51.062 49.59 51.086 49.661 51.06 49.75 51.079 49.706 51.044 49.801 51.007 49.936 51.117 50.306 51.195 50.425 51.293 50.517 51.312 50.673 51.344 50.554 51.245 50.654 51.063 51.344 51.631"/><polygon class="cls-3" points="51.344 51.631 50.342 53.02 49.663 52.878 49.417 52.826 49.053 52.75 49.86 51.322 51.344 51.631"/><polygon class="cls-3" points="51.213 49.256 51.269 49.573 51.212 49.946 51.049 50.337 50.654 51.063 50.554 51.245 50.517 51.312 50.425 51.293 50.306 51.195 50.566 50.72 50.736 50.656 50.864 50.481 50.965 50.297 51.036 50.111 51.075 49.929 51.08 49.761 51.049 49.613 50.985 49.491 50.89 49.399 50.789 49.316 50.694 49.26 50.439 49.229 50.142 49.317 49.843 49.513 49.63 49.737 49.58 49.79 49.387 50.114 49.289 50.441 49.3 50.731 49.417 50.943 49.443 50.966 49.529 51.037 49.523 51.044 49.347 51.354 49.197 51.265 49.194 51.263 49.193 51.263 49.189 51.26 49.03 51.034 48.974 50.716 49.03 50.344 49.195 49.952 49.448 49.578 49.768 49.261 50.122 49.029 50.477 48.907 50.797 48.906 51.046 49.025 51.05 49.027 51.213 49.256"/><path class="cls-3" d="M49.66339,52.87833A25.80092,25.80092,0,0,1,41.409,61.84667L34.96338,66.0489l-.17193-.18767L41.36128,61.576a25.16723,25.16723,0,0,0,8.05547-8.75Z"/><polygon class="cls-3" points="33.581 65.601 33.581 65.603 32.826 66.094 32.75 66.032 32.524 65.89 32.349 65.877 32.347 65.874 33.08 65.398 33.105 65.384 33.278 65.398 33.506 65.539 33.577 65.598 33.581 65.601"/><polygon class="cls-3" points="32.689 66.229 32.848 67.129 27.995 70.293 27.794 70.384 27.57 70.417 27.356 70.385 27.184 70.295 27.081 70.16 27.064 70.001 27.135 69.84 27.28 69.704 32.31 66.425 32.488 66.309 32.488 66.308 32.633 66.213 32.659 66.215 32.689 66.229"/><line class="cls-3" x1="32.63329" y1="66.21261" x2="32.6409" y2="66.20849"/><polygon class="cls-3" points="32.826 66.094 32.682 66.189 32.689 66.229 32.659 66.215 32.633 66.213 32.552 66.206 32.494 66.279 32.488 66.308 32.488 66.309 32.31 66.425 32.255 66.224 32.255 65.995 32.349 65.877 32.524 65.89 32.75 66.032 32.826 66.094"/><path class="cls-3" d="M49.41675,52.826a25.16723,25.16723,0,0,1-8.05547,8.75l-6.56983,4.28522L34.1936,65.203l-.61265.39959-.00023-.00134-.00341-.00356L40.64652,60.987a25.17818,25.17818,0,0,0,7.97012-8.59611l.43679.359Z"/><polygon class="cls-3" points="49.86 51.322 49.053 52.75 48.617 52.391 47.812 51.727 48.315 50.442 48.316 50.442 48.316 50.444 48.479 50.674 48.483 50.678 49.189 51.26 49.193 51.263 49.194 51.263 49.197 51.265 49.347 51.354 49.523 51.044 49.86 51.322"/><polygon class="cls-3" points="49.745 49.83 49.618 50.004 49.515 50.189 49.444 50.376 49.405 50.557 49.402 50.725 49.432 50.873 49.497 50.996 49.565 51.062 49.562 51.065 49.529 51.037 49.443 50.966 49.417 50.943 49.3 50.731 49.289 50.441 49.387 50.114 49.58 49.79 49.63 49.737 49.745 49.83"/><polygon class="cls-3" points="51.047 49.023 51.046 49.025 50.797 48.906 50.477 48.907 50.122 49.029 49.768 49.261 49.448 49.578 49.195 49.952 49.03 50.344 48.974 50.716 49.03 51.034 49.189 51.26 48.483 50.678 48.479 50.674 48.316 50.444 48.261 50.128 48.28 50 48.317 49.754 48.48 49.363 48.731 48.994 48.733 48.989 49.054 48.672 49.408 48.44 49.628 48.364 49.763 48.318 50.082 48.317 50.332 48.434 51.047 49.023"/><polygon class="cls-3" points="50.89 49.399 49.745 49.83 49.63 49.737 49.843 49.513 50.142 49.317 50.439 49.229 50.694 49.26 50.789 49.316 50.89 49.399"/><polygon class="cls-3" points="50.566 50.72 50.306 51.195 49.936 51.117 49.801 51.007 50.566 50.72"/><polygon class="cls-3" points="51.08 49.761 51.075 49.929 51.036 50.111 50.965 50.297 50.864 50.481 50.736 50.656 50.566 50.72 49.801 51.007 49.706 51.044 49.661 51.06 49.59 51.086 49.565 51.062 49.497 50.996 49.432 50.873 49.402 50.725 49.405 50.557 49.444 50.376 49.515 50.189 49.618 50.004 49.745 49.83 50.89 49.399 50.985 49.491 51.049 49.613 51.08 49.761"/><path class="cls-3" d="M48.98679,47.82846l-1.14582.43113A.97143.97143,0,0,1,48.98679,47.82846Z"/><polygon class="cls-3" points="49.628 48.364 49.408 48.44 49.054 48.672 48.733 48.989 48.731 48.994 47.841 48.26 48.987 47.828 49.625 48.353 49.628 48.364"/><g id="LINE-9" data-name="LINE"><path class="cls-3" d="M63.9238,37.00364l-.09626.78478-.01125-.00078c-.00586.06906-.01195.13678-.02212.20522a2.074,2.074,0,0,1-.14759.4856,3.25984,3.25984,0,0,1-.244.47483,3.70236,3.70236,0,0,1-.33889.46379c-.07806.0929-.16191.184-.24877.27435-.09087.091-.186.18136-.28427.26949-.10212.09021-.20856.17979-.31966.266-.11338.08942-.23125.17685-.35229.26206-.126.08886-.25532.17414-.38762.25856-.15729.09994-.31937.19655-.48594.29118-.17424.09876-.35183.19393-.53528.28737-.18975.09733-.38553.19156-.58318.28334-.195.0913-.3933.179-.59345.26431-.155.0662-.31148.13128-.46824.195-.1543.06192-.3086.12384-.46314.18441-.1456.05622-.29121.11244-.43706.16732l-.57385.21782-6.91571,2.59953c-.13415.05-.26969.10031-.40523.15059-.11361.04087-.22853.082-.34369.1217-.09167.03144-.18466.06311-.27944.09231-.12355.03984-.2502.07745-.37841.11394-.12174.03395-.24395.06522-.36916.09563-.11861.02786-.24022.05486-.36231.07916q-.316.062-.64847.10185c-.20682.024-.41776.04034-.63167.04751-.20165.0064-.406.00494-.61064-.00618-.19928-.01207-.39711-.03134-.59408-.06186-.19673-.02918-.39112-.06849-.58285-.1166q-.2964-.07477-.57624-.1733c-.09762-.03416-.19446-.07124-.28716-.109-.097-.03842-.19318-.07979-.28666-.12162-.09664-.044-.19083-.08992-.28388-.13738-.09736-.04809-.19087-.09824-.28332-.15-.1263-.07076-.24883-.14356-.3689-.2182-.12666-.08041-.24923-.16154-.36965-.24583-.10743-.07408-.21133-.15156-.31368-.22793-.10575-.07993-.20743-.16059-.30934-.24258-.12775-.10244-.25257-.204-.379-.30666L25.56864,30.5737c-.10556-.08691-.2098-.174-.31425-.26254-.08633-.07225-.17155-.14609-.25677-.21993-.06755-.06028-.13354-.11945-.19839-.18022-.08458-.07811-.16695-.15939-.24638-.2398q-.11207-.11562-.216-.23266c-.06456-.0747-.12663-.15123-.1858-.22688a3.23674,3.23674,0,0,1-.26631-.40013,2.32874,2.32874,0,0,1-.16858-.38125,1.2081,1.2081,0,0,1-.07378-.36326,1.692,1.692,0,0,1,.01483-.23865l-.01011-.00238.09523-.77488a1.27277,1.27277,0,0,0-.00416.22844,1.5324,1.5324,0,0,0,.07243.3635c.02083.063.04591.12658.07348.18836.02826.06583.06169.12935.09668.194.03682.0671.07744.13213.121.198.04538.06836.09345.13625.14533.20208.07034.09173.146.18252.22579.27259.08608.0945.17645.18964.27062.28273.084.08238.17218.16541.26308.248.09386.08342.19041.16636.28693.24931.1226.10472.24766.20764.37137.31079L41.84752,43.13724c.10688.08667.21244.17358.32069.26.0893.07312.17968.14466.27137.216.07381.05641.14761.11282.22412.16875.10049.07392.2035.146.30915.21762.0993.06719.2013.1339.30713.19854.09974.06156.2021.12265.30675.18056.18171.10125.36942.19728.5672.28737.18395.0828.374.16038.57226.22954.1865.06569.37881.12481.57641.17467.19018.047.38457.0863.58154.11682.19674.02919.39612.04957.59408.06187.206.01089.41061.01368.61219.00729.10606-.00482.21075-.00939.3134-.01777.107-.00776.2134-.01819.318-.03108.10889-.01226.21736-.02723.32261-.0444.11093-.01678.21995-.036.32862-.05794.14628-.02857.29185-.06118.43431-.096.15157-.03784.3-.07791.44639-.12176.132-.03856.26092-.07933.38824-.12122.1311-.04394.26034-.09033.38965-.13674.16064-.05748.3208-.11766.47982-.17624L57.427,41.85219c.16418-.06088.3295-.12335.4935-.18559.13261-.05115.26407-.10071.39536-.15163.1169-.04561.23512-.09144.3521-.13706.13859-.05638.27719-.11275.41448-.16889.12943-.05337.25731-.10785.38513-.16232.13142-.05788.26283-.11577.3927-.17477.12579-.05828.2502-.11632.37174-.17524.12016-.05867.23762-.11687.35353-.17619.11322-.05883.22367-.11719.33395-.1769.10627-.059.21248-.118.31551-.1792.10088-.05805.19991-.11856.29593-.17992.22018-.1374.43077-.28144.62947-.43033.18885-.1416.36844-.2885.53474-.44a5.17568,5.17568,0,0,0,.4384-.45079,3.99021,3.99021,0,0,0,.34475-.46206,3.133,3.133,0,0,0,.24872-.4715,2.70641,2.70641,0,0,0,.15508-.48274C63.89972,37.16618,63.91314,37.08467,63.9238,37.00364Z"/></g><g id="SPLINE-6" data-name="SPLINE"><path class="cls-3" d="M63.77937,35.6962c-.03474-.1105-.07649-.22115-.122-.32976-.04647-.114-.09948-.22543-.15535-.33777-.05911-.11454-.12241-.22972-.19092-.3426-.06946-.11827-.14408-.23424-.22294-.35084-.082-.11883-.16832-.23829-.25845-.35569-.10656-.13949-.21844-.27805-.3371-.41541q-.18372-.21545-.38343-.42668c-.13853-.14774-.28376-.2943-.43151-.439-.14559-.14094-.29557-.2825-.4477-.4209-.119-.10814-.2392-.21468-.36066-.321-.11835-.1041-.23772-.20662-.35876-.31023-.11262-.09539-.22661-.19053-.3403-.28434-.14976-.12493-.29958-.24986-.45041-.37321l-7.13919-5.88888c-.12984-.10623-.25986-.21382-.38971-.32-.10394-.0858-.20771-.17025-.313-.25581-.09541-.07621-.18936-.15267-.28584-.22729-.11459-.09087-.23057-.1815-.34625-.27079-.11078-.0846-.22125-.16786-.333-.25089-.11682-.08771-.23478-.17382-.35537-.25946-.11456-.08255-.23288-.163-.35145-.24488-.11515-.07827-.23186-.15766-.35086-.23387-.116-.07535-.232-.15069-.35051-.22422-.11535-.07129-.232-.14236-.34975-.21185-.11488-.0686-.23214-.1354-.34924-.20084-.268-.1499-.54365-.29568-.82639-.43465-.269-.13169-.54556-.25924-.83037-.37842-.27151-.11457-.549-.22392-.83458-.32352-.27406-.09746-.55388-.18835-.839-.27-.27775-.07877-.55825-.15011-.84441-.2135q-.42024-.09252-.84849-.15862-.43062-.06777-.86428-.10585-.44207-.03869-.88231-.05131c-.30157-.0093-.60255-.0076-.90079.00194-.18386.00465-.36669.01467-.54805.02583-.18667.01208-.37264.02821-.55574.04523q-.28434.02931-.5632.066-.28686.0381-.56837.08356c-.19414.03284-.38534.06656-.57583.10431q-.33633.06555-.665.14225-.34425.07944-.67845.16823c-.23341.062-.46347.12754-.69168.19554q-.33422.10059-.66031.20807c-.16806.05463-.33571.112-.5006.16881-.16087.05613-.32151.11361-.48084.17086-.1474.05376-.2948.10752-.442.16264-.19288.0715-.38438.14275-.577.2156l-6.91432,2.59929c-.13395.05139-.26949.10166-.40186.15416-.11175.04331-.22219.08639-.331.13058-.088.03633-.17464.07244-.25971.10965-.11194.05029-.22254.10034-.32969.15394-.10227.05-.20161.10081-.29754.15522-.09236.051-.18179.10285-.26673.15671a3.84346,3.84346,0,0,0-.41262.29769,2.5474,2.5474,0,0,0-.31655.30712,1.8276,1.8276,0,0,0-.21731.31879,1.35348,1.35348,0,0,0-.11966.32933.881.881,0,0,0-.01744.10581l-.001.00991a1.27277,1.27277,0,0,0-.00416.22844,1.5324,1.5324,0,0,0,.07243.3635c.02083.063.04591.12658.07348.18836.02826.06583.06169.12935.09668.194.03682.0671.07744.13213.121.198.04538.06836.09345.13625.14533.20208.07034.09173.146.18252.22579.27259.08608.0945.17645.18964.27062.28273.084.08238.17218.16541.26308.248.09386.08342.19041.16636.28693.24931.1226.10472.24766.20764.37137.31079L41.84752,43.13724c.10688.08667.21244.17358.32069.26.0893.07312.17968.14466.27137.216.07381.05641.14761.11282.22412.16875.10049.07392.2035.146.30915.21762.0993.06719.2013.1339.30713.19854.09974.06156.2021.12265.30675.18056.18171.10125.36942.19728.5672.28737.18395.0828.374.16038.57226.22954.1865.06569.37881.12481.57641.17467.19018.047.38457.0863.58154.11682.19674.02919.39612.04957.59408.06187.206.01089.41061.01368.61219.00729.10606-.00482.21075-.00939.3134-.01777.107-.00776.2134-.01819.318-.03108.10889-.01226.21736-.02723.32261-.0444.11093-.01678.21995-.036.32862-.05794.14628-.02857.29185-.06118.43431-.096.15157-.03784.3-.07791.44639-.12176.132-.03856.26092-.07933.38824-.12122.1311-.04394.26034-.09033.38965-.13674.16064-.05748.3208-.11766.47982-.17624L57.427,41.85219c.16418-.06088.3295-.12335.4935-.18559.13261-.05115.26407-.10071.39536-.15163.1169-.04561.23512-.09144.3521-.13706.13859-.05638.27719-.11275.41448-.16889.12943-.05337.25731-.10785.38513-.16232.13142-.05788.26283-.11577.3927-.17477.12579-.05828.2502-.11632.37174-.17524.12016-.05867.23762-.11687.35353-.17619.11322-.05883.22367-.11719.33395-.1769.10627-.059.21248-.118.31551-.1792.10088-.05805.19991-.11856.29593-.17992.22018-.1374.43077-.28144.62947-.43033.18885-.1416.36844-.2885.53474-.44a5.17568,5.17568,0,0,0,.4384-.45079,3.99021,3.99021,0,0,0,.34475-.46206,3.133,3.133,0,0,0,.24872-.4715,2.70641,2.70641,0,0,0,.15508-.48274c.01767-.08087.03109-.16238.04175-.24341.01-.08507.016-.16942.01879-.256a2.89807,2.89807,0,0,0-.03411-.516A3.4061,3.4061,0,0,0,63.77937,35.6962Zm-8.48469-6.9526-.06292.1-.11187.08221-.151.05716-.17844.02731-.19114-.00518-.18828-.03622-.17123-.06562-.138-.08952-.09608-.10386-.04485-.11288.00951-.11136.06292-.1.11181-.0822.151-.05716.17844-.02731.19114.00518.18828.03622.17123.06561.138.08953.09608.10386.04492.11287Z"/><polygon class="cls-3" points="55.304 28.632 55.295 28.744 55.232 28.844 55.12 28.926 54.969 28.983 54.79 29.01 54.599 29.005 54.411 28.969 54.24 28.903 54.102 28.814 54.006 28.71 53.961 28.597 53.97 28.486 54.033 28.386 54.145 28.303 54.296 28.246 54.475 28.219 54.666 28.224 54.854 28.26 55.025 28.326 55.163 28.416 55.259 28.519 55.304 28.632"/></g><path class="cls-5" d="M51.95732,39.76125a.85482.85482,0,0,1-.01974.17149.24776.24776,0,0,1-.00579.03017l.00024.00135a1.18188,1.18188,0,0,1-.063.186,1.593,1.593,0,0,1-.251.39553,2.48912,2.48912,0,0,1-.23782.24187l-.0011.00159a3.16363,3.16363,0,0,1-.54961.3871c-.10488.05875-.21586.11442-.33024.16652-.235.10809-.48566.20643-.73518.30319-.09386.0346-.188.06785-.28183.10245a.27426.27426,0,0,0-.03137.01109,8.32124,8.32124,0,0,1-.85945.25984c-.08658.02082-.17632.03942-.26654.05533a.28552.28552,0,0,1-.03343.00729l-.00159-.00111.00024.00134a7.08133,7.08133,0,0,1-1.0443.10917c-.109.00394-.21869.00385-.32864.00241L46.874,42.1932c-.12657-.00129-.2541-.008-.38074-.01756a5.45862,5.45862,0,0,1-.68119-.09926,2.44224,2.44224,0,0,1-1.17625-.56041,2.0198,2.0198,0,0,1-.37546-.3892.75152.75152,0,0,1-.11773-.42355,1.02474,1.02474,0,0,1,.08829-.38906,1.42022,1.42022,0,0,1,.112-.20719l.01663-.02376a1.61589,1.61589,0,0,1,.12256-.16323,2.71612,2.71612,0,0,1,.57639-.5029l.00135-.00023.00023.00134.00159.00111c.07192-.04878.14591-.09376.22417-.13811.04048-.0224.081-.04482.12168-.06588.08277-.04237.16873-.08251.256-.1229.12-.05171.243-.10254.36857-.15385.0999-.03982.20271-.07878.304-.11885.257-.09391.51282-.18622.78158-.26832.12666-.03762.25784-.07324.39107-.10506a6.649,6.649,0,0,1,.85943-.14182l.03976-.00285c.14733-.01487.297-.02459.44754-.02892a6.5675,6.5675,0,0,1,.75145.01744c.1154.00881.22882.02213.34272.03815.01846.0023.03557.00484.05291.00872.0968.01348.19161.03147.28689.05216a2.87534,2.87534,0,0,1,.665.22013,2.97186,2.97186,0,0,1,.50966.33917c.01474.01267.02789.02424.04126.03716a1.8488,1.8488,0,0,1,.33422.352A.75255.75255,0,0,1,51.95732,39.76125Z"/><path class="cls-5" d="M36.72538,27.19777a.85147.85147,0,0,1-.0184.17125.26736.26736,0,0,1-.00555.03152l-.01766-.01354.01631.01378a1.05494,1.05494,0,0,1-.06165.18582,1.66519,1.66519,0,0,1-.251.39553,2.55,2.55,0,0,1-.21729.22436.23729.23729,0,0,0-.02164.0191,3.05973,3.05973,0,0,1-.55094.38732c-.10488.05876-.21451.11419-.32914.165l.00024.00135c-.235.10809-.48566.20643-.73652.30342-.09386.03461-.18663.06762-.28049.10222a.27114.27114,0,0,0-.03137.01109l-.00134.00023a8.2962,8.2962,0,0,1-.85811.2596c-.08658.02083-.17632.03943-.26654.05533a.33093.33093,0,0,1-.03612.00776,7.07772,7.07772,0,0,1-1.04407.11052c-.10764.00371-.2171.005-.3257.00328l-.04452-.00049c-.127-.004-.25568-.00906-.38257-.02a5.298,5.298,0,0,1-.68118-.09927,2.98262,2.98262,0,0,1-.66635-.21989,2.90089,2.90089,0,0,1-.50855-.34074,1.99761,1.99761,0,0,1-.37523-.38787.757.757,0,0,1-.118-.42489,1.00112,1.00112,0,0,1,.0883-.38905,1.32163,1.32163,0,0,1,.11226-.20585l-.00024-.00135a1.72046,1.72046,0,0,1,.1392-.187,2.59746,2.59746,0,0,1,.578-.50178l.00158.00111c.06567-.0449.13585-.08783.209-.12988.04048-.02241.081-.04482.123-.06612.19977-.10326.41674-.19566.63846-.28475a.2164.2164,0,0,0,.02709-.01172l.27685-.10713c.25585-.09232.51147-.186.77913-.2665q.19166-.05879.39352-.10688a6.44449,6.44449,0,0,1,.861-.14071.33432.33432,0,0,1,.03683-.00372c.14757-.01352.2972-.02325.44753-.02893a6.65567,6.65567,0,0,1,.7528.01722c.11406.009.22859.02078.34138.03838l.00135-.00024c.01845.00231.03556.00484.05291.00872.09545.01372.19025.03172.28553.0524a2.44176,2.44176,0,0,1,1.17625.56041c.01315.01156.02654.02447.041.03581.03469.03136.06938.06273.10272.09435a1.34865,1.34865,0,0,1,.23149.25769A.7415.7415,0,0,1,36.72538,27.19777Z"/><g id="LINE-10" data-name="LINE"><line class="cls-3" x1="73.3498" y1="10.91388" x2="73.35273" y2="10.91475"/><line class="cls-3" x1="73.60984" y1="10.97911" x2="73.62877" y2="10.9841"/></g><path class="cls-3" d="M73.62529,11.27152a.56164.56164,0,0,1-.01151.18669.99846.99846,0,0,1-.06783.17441A49.44129,49.44129,0,0,1,58.10736,28.0477l-.0489-.301-.36884-.30429A49.46632,49.46632,0,0,0,72.9499,11.14208a.8338.8338,0,0,1,.11448-.1382.36167.36167,0,0,1,.14021-.07887.29088.29088,0,0,1,.14692-.00925.27786.27786,0,0,1,.13165.06148.38577.38577,0,0,1,.09718.12588A.51557.51557,0,0,1,73.62529,11.27152Z"/><path class="cls-3" d="M73.86785,11.3321a.56192.56192,0,0,1-.01151.18669.97165.97165,0,0,1-.06758.17575,50.071,50.071,0,0,1-15.636,16.62622l-.04527-.27248A49.44136,49.44136,0,0,0,73.546,11.63321a.99781.99781,0,0,0,.06784-.17442.5619.5619,0,0,0,.0115-.18669.51556.51556,0,0,0-.045-.16841.38571.38571,0,0,0-.09717-.12587.27784.27784,0,0,0-.13166-.06148l.00111-.00159.25711.06436L73.609,10.982a.44164.44164,0,0,1,.117.05713.32527.32527,0,0,1,.09694.12453A.56043.56043,0,0,1,73.86785,11.3321Z"/><polygon class="cls-3" points="58.058 27.747 56.775 28.592 56.419 28.298 56.414 28.301 56.272 28.22 56.622 27.989 56.632 27.975 56.038 27.484 55.958 27.44 55.961 27.433 57.056 26.92 57.69 27.442 58.058 27.747"/><polygon class="cls-3" points="56.622 27.989 56.272 28.22 56.258 28.211 56.041 28.22 55.803 28.328 55.578 28.517 55.467 28.656 55.416 28.717 55.382 28.688 55.364 28.709 55.352 28.7 55.287 28.724 55.248 28.81 55.094 28.936 55.045 28.95 55.069 28.888 55.266 28.531 55.545 28.219 55.869 27.991 56.196 27.878 56.484 27.894 56.622 27.989"/><polygon class="cls-3" points="56.632 27.975 56.622 27.989 56.484 27.894 56.196 27.878 55.869 27.991 55.545 28.219 55.266 28.531 55.069 28.888 55.045 28.95 54.857 29.006 54.578 29.007 54.391 28.963 54.384 28.751 54.474 28.397 54.568 28.227 54.671 28.04 54.951 27.728 55.274 27.5 55.601 27.387 55.889 27.403 55.958 27.44 56.038 27.484 56.632 27.975"/><polygon class="cls-3" points="58.058 27.747 58.108 28.049 58.153 28.32 58.247 28.892 57.699 29.355 56.775 28.592 58.058 27.747"/><rect class="cls-6" width="80" height="80"/></svg>