<svg version="1.1" xmlns="http://www.w3.org/2000/svg" xmlns:xlink="http://www.w3.org/1999/xlink" width="136.67775" height="58.10291" viewBox="0,0,136.67775,58.10291"><g transform="translate(-160.38011,-168.99594)"><g data-paper-data="{&quot;isPaintingLayer&quot;:true}" fill="none" fill-rule="nonzero" stroke="none" stroke-width="0.5" stroke-linecap="butt" stroke-linejoin="miter" stroke-miterlimit="10" stroke-dasharray="" stroke-dashoffset="0" font-family="none" font-weight="none" font-size="none" text-anchor="none" style="mix-blend-mode: normal"><path d="M289.38205,201.6087c1.20257,-0.40086 2.47765,-0.86735 3.67999,-1.45431c0.33127,-0.0346 0.66489,-0.07325 1.00365,-0.11548c0.55902,-0.06969 1.34557,-0.4834 1.68963,-0.03732c1.6998,2.20387 0.46019,4.49587 -1.58143,5.37842c-0.97635,-0.8769 -1.81735,-1.4948 -2.33942,-1.6456c-0.74228,-0.48186 -1.55249,-0.86794 -2.41312,-1.14071c-0.1685,-0.08691 -0.33667,-0.17034 -0.50423,-0.24713c0.04332,-0.21306 0.07988,-0.42859 0.10942,-0.64634c0.11907,-0.02203 0.2376,-0.05223 0.35551,-0.09153z" data-paper-data="{&quot;origPos&quot;:null}" fill="#a85b00"/><path d="M295.06209,180.5912c0.36919,0 1.56797,-0.17907 1.99577,-0.03817c-0.8077,1.09624 -1.39699,2.36329 -1.7037,3.73694c-1.45909,-1.31628 -3.25236,-2.40834 -5.16112,-3.24917c1.64023,-0.326 3.37369,-0.4496 4.86905,-0.4496z" fill="#a85b00"/><path d="M210.34307,181.82434l-0.59152,0.14788c-2.50599,0.52974 -7.56701,-0.47559 -3.46614,-3.63851c0.60502,-0.46664 4.02839,0.83646 4.66705,1.09192c0,0 1.1606,0.46424 0.69636,1.62483c-0.30922,0.77305 -0.92739,0.82522 -1.30575,0.77387z" fill="#a85b00"/><path d="M190.53927,192.82597l0.03599,0.08242c-1.57192,1.57192 -2.5151,3.24731 -5.12145,2.79466c-1.62534,-0.28228 -0.38873,-4.2717 -0.22498,-4.54461c0.32962,-0.54937 2.08559,-0.68855 3.4227,-0.72196v-0.00859h0.52441c0.373,-0.00315 0.67946,0 0.86205,0c0.15799,0 0.30913,0.02931 0.44828,0.08279c0.35858,0.12183 0.80172,0.42295 0.80172,1.16721c0,0.70797 -0.40097,1.01496 -0.74872,1.14808z" fill="#a85b00"/><path d="M166.29538,174.04401c-0.12006,-0.11436 0.2838,-0.88018 0.30929,-1.08329c0.26032,-2.07379 0.24049,-3.26584 2.75408,-3.93351c1.36878,-0.36358 4.22531,2.5489 5.16923,3.30404c0,0 0.97609,0.78087 0.19522,1.75695c-0.78087,0.97609 -1.75695,0.19522 -1.75695,0.19522c-0.02969,-0.02375 -0.0594,-0.04771 -0.08914,-0.07185c-0.16037,0.15311 -0.3614,0.26399 -0.58526,0.31479l-0.66786,0.16697c-2.15485,0.53871 -3.32625,1.25788 -5.3286,-0.64931z" fill="#a85b00"/><path d="M166.64563,210.98479c-0.28057,0.73809 -0.45104,1.62537 -0.67999,2.02723c-0.42632,0.74828 -1.97609,1.19627 -2.48274,1.27399c-1.71774,0.26351 -2.99772,-2.78268 -3.09778,-3.73499c-0.06769,-0.64427 0.55837,-1.05475 1.38241,-1.31488c0.00073,-0.08643 0.01608,-0.1784 0.04869,-0.2762c0.39528,-1.18585 0.62684,-0.72275 0.62684,-0.72275l0.69323,-0.34661c1.04341,-0.39877 1.72436,-0.6165 2.24477,-0.54806c0.13132,-0.04394 0.26286,-0.08415 0.39393,-0.12048v-0.15665h1.38646c0.05881,0 0.11666,0.00406 0.17331,0.01192c0.05664,-0.00786 0.1145,-0.01192 0.17331,-0.01192c0.69036,0 1.25,0.55964 1.25,1.25c0,0.34518 -0.13991,0.65768 -0.36612,0.88388l-0.51992,0.51992c0.03596,0.17697 -0.49746,0.69211 -1.22639,1.26561z" fill="#a85b00"/><path d="M222.75895,218.79694l0.00319,-0.04371c-0.19853,-0.65539 -0.3127,-1.36946 -0.34382,-2.07199c-0.12887,-0.68444 -0.20403,-1.3542 -0.17632,-2.04795l-0.14172,-0.03543l0.31323,-1.25293c-0.06879,-0.34677 -0.01404,-0.7944 0.49606,-1.17697c1,-0.75 1.75,0.25 1.75,0.25c1.23839,1.65119 2.59554,3.65068 3.1589,5.64604c0.10174,0.36035 0.53133,2.1355 0.21063,2.38285c-2.47965,1.9125 -4.11954,0.94247 -4.95745,-0.87217c-0.28349,-0.3396 -0.3127,-0.77775 -0.3127,-0.77775zM225.25341,218.63064c0,0 0.00293,0.04389 -0.00055,0.11575c0.07433,0.00374 0.15303,0.00442 0.23294,0.00426c-0.02668,-0.15608 -0.06659,-0.3042 -0.12518,-0.43358c-0.04207,-0.09289 -0.08529,-0.1858 -0.12961,-0.27869z" fill="#a85b00"/><path d="M225.21416,217.9913c0.04432,0.09289 0.10581,0.1829 0.14788,0.27579c0.0586,0.12939 0.11391,0.37456 0.1406,0.53064c-0.07991,0.00016 -0.18981,0.00029 -0.26414,-0.00345c0.00348,-0.07186 -0.0054,-0.11795 -0.0054,-0.11795z" data-paper-data="{&quot;noHover&quot;:false,&quot;origItem&quot;:[&quot;Path&quot;,{&quot;applyMatrix&quot;:true,&quot;segments&quot;:[[225.25341,218.63064],[[225.25286,218.74639],[0.00348,-0.07186],[0.07433,0.00374]],[[225.4858,218.75065],[-0.07991,0.00016],[-0.02668,-0.15608]],[[225.36061,218.31707],[0.0586,0.12939],[-0.04207,-0.09289]],[[225.231,218.03838],[0.04432,0.09289],[0,0]]],&quot;closed&quot;:true}]}" fill="#a85b00"/><path d="M247.26135,222.57666c0.05209,0.07818 0.97138,1.25579 0.96798,1.27958c-0.45498,3.18487 -3.03701,4.29805 -5.1589,2.09301c-0.66759,-0.69375 -0.29689,-3.5079 -0.22267,-4.80915h-0.33457c0,0 0,-0.84898 0,-1.21826c-0.06427,-0.3345 -0.0072,-0.75634 0.4563,-1.13393c0.00975,-0.00803 0.01963,-0.01591 0.02963,-0.02364c0.57605,-0.45003 1.08262,-0.29077 1.39848,-0.08791c0.1345,0.07938 0.25284,0.18323 0.34889,0.30542l1.37924,1.72405l-0.07325,0.0586c0.40598,0.594 0.79888,1.19683 1.20888,1.81222z" fill="#a85b00"/><path d="M254.44003,197.53715c-0.04075,-0.04096 -0.08156,-0.08189 -0.12246,-0.12279c0,0 -0.88388,-0.88388 0,-1.76777c0.88388,-0.88388 1.76777,0 1.76777,0c1.05956,1.05956 2.28932,1.96047 3.33226,3.00341c0.49113,0.49113 1.49402,0.97259 1.28984,1.63646c-1.67851,5.45759 -5.48,0.80861 -6.19874,-2.06636l-0.17331,-0.69323c0,0 0.0384,0.0034 0.10464,0.01027z" fill="#a85b00"/></g></g></svg>