<svg version="1.1" xmlns="http://www.w3.org/2000/svg" xmlns:xlink="http://www.w3.org/1999/xlink" width="136.67775" height="61.52879" viewBox="0,0,136.67775,61.52879"><g transform="translate(-160.38011,-168.99594)"><g data-paper-data="{&quot;isPaintingLayer&quot;:true}" fill="none" fill-rule="nonzero" stroke="none" stroke-width="none" stroke-linecap="none" stroke-linejoin="miter" stroke-miterlimit="10" stroke-dasharray="" stroke-dashoffset="0" font-family="none" font-weight="none" font-size="none" text-anchor="none" style="mix-blend-mode: normal"><path d="M244.8029,181.4967c1.63147,0.40787 4.3792,-0.41836 6.12471,0.29267c0.80569,0.3282 1.44546,3.15407 2.12767,3.90891c1.62554,1.79861 3.88747,2.70409 5.39596,4.49456c0.30428,0.36115 -0.48735,2.19779 -0.48735,2.60579c0,2.43939 0.44014,5.46904 1.40072,7.75878c2.666,6.35497 7.09618,11.14784 12.40548,15.28521c-2.91504,5.07254 -7.83262,7.58526 -12.12008,9.09757c-11.446,4.0194 -23.406,4.6185 -35.15,4.1348c-13.222,0.011 -26.656,-0.4181 -39.536,-5.5484c-1.94124,-0.77283 -3.79835,-2.15006 -5.51409,-3.92987c7.63249,-0.85885 14.41732,-1.21048 20.77866,-6.28997c2.26782,-1.81084 4.03078,-5.10421 4.99273,-7.79815c0.30143,-0.84416 0.84366,-4.43416 1.51891,-4.75542c0.63441,-0.30183 5.30055,0.62693 5.82768,0.57809c2.52751,-0.23422 5.40481,-1.08919 7.59166,-2.44218c6.24384,-3.86302 12.11888,-12.44511 14.40631,-21.21397c2.29421,1.94449 7.52853,3.14447 10.23701,3.82159z" id="ID0.9443309367634356" fill="#a85b00" stroke="#703d00" stroke-width="2.61452" stroke-linecap="round"/><path d="M244.8029,181.49671c1.63147,0.40787 4.3792,-0.41836 6.12471,0.29267c0.80569,0.3282 1.44546,3.15407 2.12767,3.90891c1.62554,1.79861 3.88747,2.70409 5.39596,4.49456c0.30428,0.36115 -0.48735,2.19779 -0.48735,2.60579c0,1.60168 0.18975,3.45783 0.59198,5.19192c-0.35824,0.1225 -0.70649,0.23518 -1.04146,0.33814c-11.9632,3.6755 -24.2445,4.5535 -36.6459,4.352c-4.85607,0.00109 -9.79581,-0.23368 -14.74602,-0.76856c0.18906,-0.5965 0.39624,-1.05358 0.61774,-1.15896c0.63441,-0.30183 5.30055,0.62693 5.82768,0.57809c2.52751,-0.23422 5.40481,-1.08919 7.59166,-2.44218c6.24384,-3.86302 12.11888,-12.44511 14.40631,-21.21396c2.29421,1.9445 7.52853,3.14447 10.23702,3.82159z" id="ID0.20980827091261744" fill="#a85b00" stroke="#703d00" stroke-width="2.4183" stroke-linecap="round"/><path d="M244.80289,181.4967c1.63147,0.40787 4.3792,-0.41836 6.12471,0.29267c0.80569,0.3282 1.44546,3.15407 2.12767,3.90891c1.62554,1.79861 3.88747,2.70409 5.39596,4.49456c0.30428,0.36115 -0.48735,2.19779 -0.48735,2.60579c0,2.43939 0.44014,5.46904 1.40072,7.75878c0.75948,1.81037 1.66212,3.49397 2.68748,5.07176c-0.26985,0.7912 -0.6864,1.43061 -1.35208,1.77082c-4.3,2.174 -12.044,-4.568 -14.45,-1.05c-2.726,3.995 5.332,10.527 3.6,15.5c-0.853,3.228 -7.367,5.247 -9.3,2.6c-3.684,-5.05 0.54,-13.195 -2.6,-18.6c-1.649,-2.845 -6.852,-2.975 -9.3,-1.05c-4.601,3.631 -4.068,11.637 -8.75,15c-2.505,1.797 -6.482,0.54 -8.8,-1.05c-3.05786,-2.58405 -4.91953,-6.87974 -7.01285,-10.59036c0.45094,-0.8998 0.83206,-1.80498 1.13416,-2.65103c0.30143,-0.84416 0.84366,-4.43416 1.51891,-4.75542c0.63441,-0.30183 5.30055,0.62693 5.82768,0.57809c2.52751,-0.23422 5.40481,-1.08919 7.59166,-2.44218c6.24384,-3.86302 12.11888,-12.44511 14.40631,-21.21396c2.29421,1.94449 7.52852,3.14446 10.23701,3.82158z" id="ID0.28453653072938323" fill="#703d00" stroke="#703d00" stroke-width="1.99513" stroke-linecap="round"/><path d="M244.80289,181.4967c1.63147,0.40787 4.3792,-0.41836 6.12471,0.29267c0.80569,0.3282 1.44546,3.15407 2.12767,3.90891c1.62554,1.79861 3.88747,2.70409 5.39596,4.49456c0.30428,0.36115 -0.48735,2.19779 -0.48735,2.60579c0,2.43939 0.44014,5.46904 1.40072,7.75878c0.3012,0.71798 0.62492,1.41601 0.96988,2.09542c-0.25451,0.87864 -0.67196,1.59436 -1.38449,1.96896c-4.3,2.2364 -12.044,-4.6992 -14.45,-1.0802c-2.726,4.1098 5.332,10.8294 3.6,15.9452c-0.853,3.3207 -7.367,5.3977 -9.3,2.6747c-3.684,-5.1951 0.54,-13.574 -2.6,-19.1342c-1.649,-2.9267 -6.852,-3.0605 -9.3,-1.0802c-4.601,3.7353 -4.068,11.9712 -8.75,15.4308c-2.505,1.8486 -6.482,0.5555 -8.8,-1.0801c-2.26647,-1.97028 -3.87578,-4.9079 -5.40935,-7.8508c0.51534,-0.9936 0.94638,-2.00219 1.28068,-2.93839c0.30143,-0.84416 0.84366,-4.43416 1.51891,-4.75542c0.63441,-0.30183 5.30055,0.62693 5.82768,0.57809c2.52751,-0.23422 5.40481,-1.08919 7.59166,-2.44218c6.24384,-3.86302 12.11888,-12.44511 14.40631,-21.21396c2.29421,1.94449 7.52852,3.14446 10.23701,3.82158z" data-paper-data="{&quot;origPos&quot;:null}" id="ID0.28453653072938323" fill="#f3a2b9" stroke="#f3a2b9" stroke-width="2.02398" stroke-linecap="butt"/><path d="M235.5,179.7c0,0.41067 -0.70069,0.7929 -1.90611,1.11349c0.24068,-0.67196 0.46209,-1.34831 0.6627,-2.02694c0.79556,0.275 1.24341,0.58514 1.24341,0.91346z" id="ID0.7229506736621261" fill="#a85b00" stroke="#703d00" stroke-width="1.99513" stroke-linecap="butt"/><path d="M216.9,202.95l-4.1,3.65" id="ID0.2551163868047297" fill="none" stroke="#ffffff" stroke-width="1.99513" stroke-linecap="round"/><path d="M234.45,197.3l4.15,3.1" id="ID0.3400295590981841" fill="none" stroke="#ffffff" stroke-width="1.99513" stroke-linecap="round"/><path d="M247.9,197.8l-0.5,3.1z" id="ID0.8367559141479433" fill="none" stroke="#ffffff" stroke-width="1.99513" stroke-linecap="round"/><path d="M233.45,187.45l-0.55,-2.55z" id="ID0.7581375841982663" fill="none" stroke="#ffffff" stroke-width="1.99513" stroke-linecap="round"/><path d="M223.80339,198.3l6.2,-2.05" data-paper-data="{&quot;origPos&quot;:null}" id="ID0.47782517969608307" fill="none" stroke="#ffef38" stroke-width="1.99513" stroke-linecap="round"/><path d="M242.2,188.5l5.7,2.05" data-paper-data="{&quot;origPos&quot;:null}" id="ID0.0538422497920692" fill="none" stroke="#6fe2ff" stroke-width="1.99513" stroke-linecap="round"/><path d="M265.81229,174.29387c-2.21625,1.10813 -4.41696,-1.47616 -6.31725,-2.4263l-0.66901,-0.3345c-0.42281,-0.20043 -0.7152,-0.63114 -0.7152,-1.13014c0,-0.09934 0.01159,-0.19597 0.03348,-0.28861c2.09214,0.14709 4.78824,0.32 7.67208,0.32465c-0.11184,0.83068 -0.08063,1.70158 0.11961,2.60267c0.06464,0.2909 0.15637,0.63331 0.27381,1.01426c-0.13097,0.08226 -0.26367,0.16162 -0.39753,0.23798z" fill="#a85b00" stroke="none" stroke-width="0.5" stroke-linecap="butt"/><path d="M289.38205,201.60869c1.20257,-0.40086 2.47765,-0.86735 3.67999,-1.45431c0.33127,-0.0346 0.66489,-0.07325 1.00365,-0.11548c0.55902,-0.06969 1.34557,-0.4834 1.68963,-0.03732c1.6998,2.20387 0.46019,4.49587 -1.58143,5.37842c-0.97635,-0.8769 -1.81735,-1.4948 -2.33942,-1.6456c-0.74228,-0.48186 -1.55249,-0.86794 -2.41312,-1.14071c-0.1685,-0.08691 -0.33667,-0.17034 -0.50423,-0.24713c0.04332,-0.21306 0.07988,-0.42859 0.10942,-0.64634c0.11907,-0.02203 0.2376,-0.05223 0.35551,-0.09153z" data-paper-data="{&quot;origPos&quot;:null}" fill="#a85b00" stroke="none" stroke-width="0.5" stroke-linecap="butt"/><path d="M295.06209,180.59119c0.36919,0 1.56797,-0.17907 1.99577,-0.03817c-0.8077,1.09624 -1.39699,2.36329 -1.7037,3.73694c-1.45909,-1.31628 -3.25236,-2.40834 -5.16112,-3.24917c1.64023,-0.326 3.37369,-0.4496 4.86905,-0.4496z" fill="#a85b00" stroke="none" stroke-width="0.5" stroke-linecap="butt"/><path d="M210.34307,181.82433l-0.59152,0.14788c-2.50599,0.52974 -7.56701,-0.47559 -3.46614,-3.63851c0.60502,-0.46664 4.02839,0.83646 4.66705,1.09192c0,0 1.1606,0.46424 0.69636,1.62483c-0.30922,0.77305 -0.92739,0.82522 -1.30575,0.77387z" fill="#a85b00" stroke="none" stroke-width="0.5" stroke-linecap="butt"/><path d="M190.53927,192.82596l0.03599,0.08242c-1.57192,1.57192 -2.5151,3.24731 -5.12145,2.79466c-1.62534,-0.28228 -0.38873,-4.2717 -0.22498,-4.54461c0.32962,-0.54937 2.08559,-0.68855 3.4227,-0.72196v-0.00859h0.52441c0.373,-0.00315 0.67946,0 0.86205,0c0.15799,0 0.30913,0.02931 0.44828,0.08279c0.35858,0.12183 0.80172,0.42295 0.80172,1.16721c0,0.70797 -0.40097,1.01496 -0.74872,1.14808z" fill="#a85b00" stroke="none" stroke-width="0.5" stroke-linecap="butt"/><path d="M166.29538,174.044c-0.12006,-0.11436 0.2838,-0.88018 0.30929,-1.08329c0.26032,-2.07379 0.24049,-3.26584 2.75408,-3.93351c1.36878,-0.36358 4.22531,2.5489 5.16923,3.30404c0,0 0.97609,0.78087 0.19522,1.75695c-0.78087,0.97609 -1.75695,0.19522 -1.75695,0.19522c-0.02969,-0.02375 -0.0594,-0.04771 -0.08914,-0.07185c-0.16037,0.15311 -0.3614,0.26399 -0.58526,0.31479l-0.66786,0.16697c-2.15485,0.53871 -3.32625,1.25788 -5.3286,-0.64931z" fill="#a85b00" stroke="none" stroke-width="0.5" stroke-linecap="butt"/><path d="M166.64563,210.98478c-0.28057,0.73809 -0.45104,1.62537 -0.67999,2.02723c-0.42632,0.74828 -1.97609,1.19627 -2.48274,1.27399c-1.71774,0.26351 -2.99772,-2.78268 -3.09778,-3.73499c-0.06769,-0.64427 0.55837,-1.05475 1.38241,-1.31488c0.00073,-0.08643 0.01608,-0.1784 0.04869,-0.2762c0.39528,-1.18585 0.62684,-0.72275 0.62684,-0.72275l0.69323,-0.34661c1.04341,-0.39877 1.72436,-0.6165 2.24477,-0.54806c0.13132,-0.04394 0.26286,-0.08415 0.39393,-0.12048v-0.15665l1.38646,0c0.05881,0 0.11666,0.00406 0.17331,0.01192c0.05664,-0.00786 0.1145,-0.01192 0.17331,-0.01192c0.69036,0 1.25,0.55964 1.25,1.25c0,0.34518 -0.13991,0.65768 -0.36612,0.88388l-0.51992,0.51992c0.03596,0.17697 -0.49746,0.69211 -1.22639,1.26561z" fill="#a85b00" stroke="none" stroke-width="0.5" stroke-linecap="butt"/></g></g></svg>