<svg xmlns="http://www.w3.org/2000/svg" viewBox="0 0 374 360"><defs><style>.cls-1,.cls-6{fill:#fff;}.cls-1{stroke:#f7f8f8;}.cls-1,.cls-5{stroke-miterlimit:10;}.cls-2{fill:#bebcba;}.cls-3{fill:#c8da33;}.cls-4{fill:#00b0cb;}.cls-5{fill:none;stroke:#efefef;}.cls-6{opacity:0.8;}</style></defs><title>toio-vp_tc-mat-front-20percent_v1.0.1</title><g id="レイヤー_1" data-name="レイヤー 1"><rect class="cls-1" y="-7" width="374" height="374" rx="5.67"/><rect class="cls-1" x="0.52" y="-6.48" width="372.96" height="372.96" rx="5.17" transform="translate(367 -7) rotate(90)"/><path class="cls-2" d="M10.52,179.83a1.42,1.42,0,1,1,1.41,1.42,1.41,1.41,0,0,1-1.41-1.42M12,175.59a1.42,1.42,0,0,1-1.37-1.46A1.41,1.41,0,1,1,12,175.59Zm.23-5.67a1.29,1.29,0,1,1,.08,0h-.08m.4-5.65A1.41,1.41,0,1,1,14.15,163a1.42,1.42,0,0,1-1.4,1.28h-.14m.59-5.63a1.42,1.42,0,1,1,.18,0H13.2M14,153a1.41,1.41,0,1,1,1.63-1.17,1.43,1.43,0,0,1-1.4,1.19L14,153m1-5.58a1.45,1.45,0,1,1,.27,0l-.27,0m1.13-5.56a1.39,1.39,0,1,1,.32,0,1.22,1.22,0,0,1-.32,0m1.32-5.51a1.41,1.41,0,1,1,1.72-1,1.39,1.39,0,0,1-1.72,1m1.49-5.46a1.41,1.41,0,0,1,.81-2.71,1.42,1.42,0,0,1-.41,2.77,1.39,1.39,0,0,1-.4-.06m1.67-5.41a1.41,1.41,0,1,1,.9-2.68,1.41,1.41,0,0,1-.45,2.75,1.76,1.76,0,0,1-.45-.07m1.85-5.38a1.41,1.41,0,0,1,1-2.65,1.41,1.41,0,1,1-1,2.65m2-5.31a1.41,1.41,0,0,1-.78-1.84,1.43,1.43,0,0,1,1.85-.77,1.41,1.41,0,0,1-.54,2.72,1.23,1.23,0,0,1-.53-.11m2.19-5.23a1.41,1.41,0,1,1,1.87-.71,1.39,1.39,0,0,1-1.29.83,1.51,1.51,0,0,1-.58-.12M29,104.43a1.42,1.42,0,1,1,.62.14,1.37,1.37,0,0,1-.62-.14m2.53-5.08a1.42,1.42,0,1,1,1.91-.59,1.4,1.4,0,0,1-1.25.75,1.43,1.43,0,0,1-.66-.16m2.7-5a1.43,1.43,0,1,1,.7.18,1.35,1.35,0,0,1-.7-.18m2.86-4.9a1.4,1.4,0,1,1,.73.21,1.4,1.4,0,0,1-.73-.21m3-4.81a1.4,1.4,0,1,1,.78.24,1.41,1.41,0,0,1-.78-.24M43.23,80a1.42,1.42,0,0,1,1.64-2.31,1.42,1.42,0,0,1-.82,2.57,1.47,1.47,0,0,1-.82-.26m3.32-4.6a1.41,1.41,0,1,1,.85.29,1.45,1.45,0,0,1-.85-.29M50,70.86a1.41,1.41,0,1,1,.89.32,1.45,1.45,0,0,1-.89-.32m3.61-4.37a1.41,1.41,0,1,1,2-.15,1.42,1.42,0,0,1-1.07.49,1.4,1.4,0,0,1-.92-.34m3.74-4.26a1.41,1.41,0,1,1,2-.08,1.39,1.39,0,0,1-1,.46,1.41,1.41,0,0,1-1-.38m3.88-4.12a1.41,1.41,0,1,1,2-2,1.41,1.41,0,0,1-2,2m4-4a1.41,1.41,0,1,1,2,0,1.44,1.44,0,0,1-1,.39,1.4,1.4,0,0,1-1-.44m4.13-3.87a1.41,1.41,0,1,1,2,.11,1.39,1.39,0,0,1-.94.36,1.43,1.43,0,0,1-1.06-.47m4.25-3.74a1.41,1.41,0,1,1,2,.18,1.42,1.42,0,0,1-2-.18M78,42.9a1.41,1.41,0,1,1,2.22-1.74,1.4,1.4,0,0,1-.24,2,1.41,1.41,0,0,1-.87.3A1.39,1.39,0,0,1,78,42.9m4.48-3.45a1.45,1.45,0,1,1,1.14.57,1.42,1.42,0,0,1-1.14-.57m4.59-3.31a1.41,1.41,0,1,1,2,.37,1.45,1.45,0,0,1-.8.25,1.43,1.43,0,0,1-1.17-.62M91.78,33a1.43,1.43,0,0,1,.43-2,1.42,1.42,0,0,1,1.52,2.39,1.39,1.39,0,0,1-.75.22,1.42,1.42,0,0,1-1.2-.65m4.8-3A1.41,1.41,0,1,1,99,28.55a1.4,1.4,0,0,1-.49,1.93,1.45,1.45,0,0,1-.72.2A1.39,1.39,0,0,1,96.58,30m4.88-2.85a1.41,1.41,0,1,1,1.92.56,1.38,1.38,0,0,1-.68.18,1.42,1.42,0,0,1-1.24-.74m5-2.68a1.41,1.41,0,1,1,1.9.62,1.5,1.5,0,0,1-.64.15,1.41,1.41,0,0,1-1.26-.77m5-2.52a1.41,1.41,0,0,1,2.56-1.2,1.4,1.4,0,0,1-.68,1.88,1.39,1.39,0,0,1-1.88-.68m5.14-2.35a1.41,1.41,0,0,1,.74-1.86,1.41,1.41,0,1,1,1.11,2.6,1.29,1.29,0,0,1-.55.11,1.42,1.42,0,0,1-1.3-.85m5.2-2.19a1.42,1.42,0,0,1,2.64-1,1.41,1.41,0,0,1-.8,1.83,1.32,1.32,0,0,1-.51.1,1.43,1.43,0,0,1-1.33-.9m5.3-2a1.41,1.41,0,1,1,2.66-1,1.4,1.4,0,0,1-.86,1.8h0a1.53,1.53,0,0,1-.47.07,1.42,1.42,0,0,1-1.33-.93m5.35-1.85a1.43,1.43,0,0,1,.92-1.78,1.42,1.42,0,0,1,.86,2.7,1.68,1.68,0,0,1-.43.07,1.42,1.42,0,0,1-1.35-1m5.42-1.67a1.41,1.41,0,1,1,1.74,1,1.31,1.31,0,0,1-.38.06,1.41,1.41,0,0,1-1.36-1m5.46-1.49a1.41,1.41,0,1,1,2.74-.69,1.4,1.4,0,0,1-1,1.71,1,1,0,0,1-.34,0,1.42,1.42,0,0,1-1.37-1.07m5.51-1.32a1.41,1.41,0,1,1,2.76-.59,1.4,1.4,0,0,1-1.09,1.68,1.36,1.36,0,0,1-.29,0,1.42,1.42,0,0,1-1.38-1.12m5.55-1.13a1.41,1.41,0,1,1,1.64,1.14,1.06,1.06,0,0,1-.25,0,1.41,1.41,0,0,1-1.39-1.16M160,7a1.4,1.4,0,0,1,1.19-1.6,1.41,1.41,0,0,1,.41,2.8h-.21A1.4,1.4,0,0,1,160,7m5.6-.77a1.42,1.42,0,0,1,1.25-1.56,1.41,1.41,0,0,1,.32,2.81H167a1.43,1.43,0,0,1-1.41-1.26m5.64-.58a1.41,1.41,0,1,1,1.52,1.29h-.11a1.42,1.42,0,0,1-1.41-1.3m5.65-.41a1.41,1.41,0,0,1,2.82-.14,1.42,1.42,0,0,1-1.35,1.48h-.06a1.41,1.41,0,0,1-1.41-1.34M182.56,5a1.41,1.41,0,1,1,2.82,0A1.39,1.39,0,0,1,184,6.37h0A1.42,1.42,0,0,1,182.56,5"/><path class="cls-2" d="M360.32,179.84a1.42,1.42,0,1,1,1.41,1.41,1.41,1.41,0,0,1-1.41-1.41m-.09-5.62a1.41,1.41,0,1,1,2.82-.09,1.39,1.39,0,0,1-1.36,1.45h-.05a1.4,1.4,0,0,1-1.41-1.36M360,168.6a1.41,1.41,0,1,1,2.82-.17,1.41,1.41,0,0,1-1.32,1.49h-.09A1.42,1.42,0,0,1,360,168.6m-.45-5.6a1.4,1.4,0,0,1,1.27-1.53,1.41,1.41,0,1,1,.27,2.8h-.13a1.41,1.41,0,0,1-1.41-1.28m-.63-5.58a1.42,1.42,0,1,1,1.59,1.22h-.19a1.43,1.43,0,0,1-1.4-1.23m-.81-5.56a1.42,1.42,0,1,1,1.62,1.17l-.22,0a1.43,1.43,0,0,1-1.4-1.19m-1-5.53a1.41,1.41,0,1,1,1.66,1.12l-.28,0a1.4,1.4,0,0,1-1.38-1.14m-1.17-5.5a1.41,1.41,0,1,1,1.69,1.06,1.17,1.17,0,0,1-.32,0,1.41,1.41,0,0,1-1.37-1.1m-1.35-5.45a1.41,1.41,0,0,1,2.73-.72,1.42,1.42,0,0,1-1,1.73,2.2,2.2,0,0,1-.36,0,1.42,1.42,0,0,1-1.37-1.05M353,130h0a1.41,1.41,0,1,1,1.76.95,1.51,1.51,0,0,1-.41.06,1.43,1.43,0,0,1-1.36-1m-1.69-5.36h0a1.41,1.41,0,1,1,1.78.9,1.37,1.37,0,0,1-.45.07,1.4,1.4,0,0,1-1.33-1m-1.88-5.31h0a1.41,1.41,0,1,1,1.82.83,1.26,1.26,0,0,1-.5.09,1.4,1.4,0,0,1-1.32-.92m-2.06-5.24a1.42,1.42,0,0,1,.78-1.85A1.41,1.41,0,0,1,350,113a1.42,1.42,0,0,1-.77,1.84,1.47,1.47,0,0,1-.54.1,1.42,1.42,0,0,1-1.31-.87m-2.22-5.18a1.41,1.41,0,1,1,1.87.71,1.31,1.31,0,0,1-.58.12,1.4,1.4,0,0,1-1.29-.83m-2.39-5.1a1.41,1.41,0,1,1,1.89.65,1.36,1.36,0,0,1-.61.14,1.42,1.42,0,0,1-1.28-.79m-2.55-5a1.41,1.41,0,1,1,1.91.59,1.44,1.44,0,0,1-.66.17,1.42,1.42,0,0,1-1.25-.76m-2.71-4.93a1.41,1.41,0,1,1,1.93.53,1.53,1.53,0,0,1-.71.18,1.4,1.4,0,0,1-1.22-.71M334.67,89a1.41,1.41,0,1,1,2.4-1.48,1.42,1.42,0,0,1-.46,1.95,1.44,1.44,0,0,1-.75.21,1.39,1.39,0,0,1-1.19-.68m-3-4.74a1.41,1.41,0,1,1,1.18.64,1.41,1.41,0,0,1-1.18-.64m-3.18-4.64a1.41,1.41,0,1,1,2,.34,1.45,1.45,0,0,1-.82.26,1.4,1.4,0,0,1-1.15-.6m-3.33-4.53h0a1.43,1.43,0,1,1,1.13.55,1.42,1.42,0,0,1-1.13-.55m-3.47-4.43a1.43,1.43,0,1,1,1.1.52,1.4,1.4,0,0,1-1.1-.52m-3.61-4.3a1.41,1.41,0,1,1,2,.14,1.38,1.38,0,0,1-.92.34,1.41,1.41,0,0,1-1.07-.48m-3.75-4.2a1.42,1.42,0,1,1,2,.08,1.34,1.34,0,0,1-.95.37,1.39,1.39,0,0,1-1.05-.45m-3.87-4.06h0a1.41,1.41,0,1,1,2,0,1.36,1.36,0,0,1-1,.41,1.39,1.39,0,0,1-1-.42m-4-3.94a1.41,1.41,0,0,1,1.95-2,1.41,1.41,0,0,1-1,2.44,1.39,1.39,0,0,1-1-.39m-4.13-3.81a1.41,1.41,0,0,1-.12-2,1.41,1.41,0,1,1,2.11,1.88,1.41,1.41,0,0,1-1,.47,1.35,1.35,0,0,1-.94-.36M298,46.67h0a1.42,1.42,0,1,1,.9.33,1.39,1.39,0,0,1-.9-.33m-4.36-3.53a1.41,1.41,0,1,1,.86.3,1.39,1.39,0,0,1-.86-.3m-4.48-3.39a1.41,1.41,0,1,1,1.67-2.28A1.41,1.41,0,0,1,290,40a1.35,1.35,0,0,1-.83-.27m-4.59-3.24a1.41,1.41,0,1,1,2-.37,1.41,1.41,0,0,1-2,.37m-4.68-3.09a1.42,1.42,0,1,1,.76.22,1.42,1.42,0,0,1-.76-.22m-4.78-2.94a1.41,1.41,0,1,1,.72.2,1.38,1.38,0,0,1-.72-.2m-4.87-2.78a1.4,1.4,0,1,1,.68.18,1.41,1.41,0,0,1-.68-.18m-4.95-2.62a1.42,1.42,0,0,1-.63-1.9A1.42,1.42,0,1,1,266,25.24a1.35,1.35,0,0,1-.64-.16m-5-2.46a1.39,1.39,0,1,1,.6.14,1.41,1.41,0,0,1-.6-.14m-5.11-2.29h0a1.39,1.39,0,1,1,.55.12,1.56,1.56,0,0,1-.55-.12M250,18.21a1.42,1.42,0,1,1,1.83-.81,1.41,1.41,0,0,1-1.32.9,1.52,1.52,0,0,1-.51-.09m-5.27-2a1.42,1.42,0,1,1,.47.08,1.6,1.6,0,0,1-.47-.08m-5.33-1.79h0a1.42,1.42,0,0,1,.86-2.7,1.41,1.41,0,0,1-.43,2.76,1.65,1.65,0,0,1-.43-.06M234,12.84h0a1.38,1.38,0,1,1,.39.06,1.32,1.32,0,0,1-.39-.06m-5.43-1.43a1.42,1.42,0,1,1,.34,0,1.37,1.37,0,0,1-.34,0m-5.47-1.26h0a1.42,1.42,0,1,1,.29,0,1.42,1.42,0,0,1-.29,0m-5.51-1.09a1.39,1.39,0,0,1-1.15-1.63,1.41,1.41,0,1,1,1.4,1.66,1,1,0,0,1-.25,0m-5.55-.89a1.37,1.37,0,1,1,.21,0l-.21,0m-5.57-.72a1.4,1.4,0,1,1,.16,0h-.16m-5.6-.54a1.48,1.48,0,1,1,.12,0h-.12m-5.61-.36a1.44,1.44,0,1,1,.08,0h-.08m-5.61-.18h0A1.42,1.42,0,1,1,191.1,5a1.4,1.4,0,0,1-1.43,1.39Z"/><path class="cls-2" d="M184,356.13h0a1.42,1.42,0,1,1,1.44-1.39,1.42,1.42,0,0,1-1.44,1.39Zm-5.71-.19a1.45,1.45,0,1,1,.07,0Zm-5.7-.36a1.48,1.48,0,1,1,.12,0h-.12m-5.68-.55a1.4,1.4,0,1,1,.16,0h-.16m-5.66-.74a1.4,1.4,0,0,1-1.2-1.59,1.41,1.41,0,0,1,2.8.4,1.41,1.41,0,0,1-1.39,1.22l-.21,0m-5.64-.91a1.37,1.37,0,1,1,.25,0,1.07,1.07,0,0,1-.25,0m-5.6-1.09a1.41,1.41,0,1,1,.29,0,1.43,1.43,0,0,1-.29,0M144.4,351a1.41,1.41,0,1,1,1.71-1,1.42,1.42,0,0,1-1.38,1.07,1.24,1.24,0,0,1-.33,0m-5.53-1.46a1.42,1.42,0,0,1-1-1.75,1.41,1.41,0,1,1,1.36,1.8,1.74,1.74,0,0,1-.39-.05m-5.47-1.65a1.41,1.41,0,0,1-.92-1.77,1.42,1.42,0,1,1,1.35,1.85,1.09,1.09,0,0,1-.43-.08M128,346.09a1.42,1.42,0,0,1,.94-2.67,1.42,1.42,0,0,1,.86,1.81,1.41,1.41,0,0,1-1.33.94,1.55,1.55,0,0,1-.47-.08m-5.35-2h0a1.41,1.41,0,1,1,1.83-.8,1.43,1.43,0,0,1-1.32.9,1.54,1.54,0,0,1-.51-.1m-5.27-2.16a1.4,1.4,0,1,1,.55.12,1.37,1.37,0,0,1-.55-.12m-5.2-2.33a1.41,1.41,0,0,1,1.2-2.56,1.41,1.41,0,0,1-.6,2.69,1.44,1.44,0,0,1-.6-.13m-5.11-2.5a1.41,1.41,0,0,1,1.27-2.52,1.41,1.41,0,0,1-.64,2.67,1.3,1.3,0,0,1-.63-.15m-5-2.66a1.43,1.43,0,0,1-.56-1.92,1.41,1.41,0,1,1,.56,1.92m-5-2.83a1.41,1.41,0,1,1,1.94-.49,1.44,1.44,0,0,1-1.22.69,1.35,1.35,0,0,1-.72-.2m-4.86-3a1.42,1.42,0,1,1,2-.43,1.42,1.42,0,0,1-2,.43m-4.76-3.14h0a1.44,1.44,0,1,1,.8.24,1.47,1.47,0,0,1-.8-.24m-4.66-3.3a1.42,1.42,0,0,1-.3-2,1.41,1.41,0,1,1,2.28,1.67,1.42,1.42,0,0,1-1.14.57,1.47,1.47,0,0,1-.84-.27m-4.54-3.44a1.41,1.41,0,1,1,.87.3,1.39,1.39,0,0,1-.87-.3m-4.44-3.59a1.44,1.44,0,1,1,.91.32,1.43,1.43,0,0,1-.91-.32m-4.32-3.73a1.41,1.41,0,0,1,1.88-2.11,1.41,1.41,0,0,1-.94,2.47,1.42,1.42,0,0,1-.94-.36m-4.19-3.87a1.41,1.41,0,0,1,2-2.05,1.41,1.41,0,0,1-1,2.44,1.39,1.39,0,0,1-1-.39m-4.07-4a1.4,1.4,0,1,1,1,.42,1.38,1.38,0,0,1-1-.42m-3.94-4.14a1.41,1.41,0,1,1,2,.08,1.42,1.42,0,0,1-1,.38,1.39,1.39,0,0,1-1-.46m-3.81-4.25a1.41,1.41,0,1,1,2,.14,1.44,1.44,0,0,1-.93.35,1.41,1.41,0,0,1-1.06-.49m-3.67-4.38A1.41,1.41,0,1,1,52,289a1.41,1.41,0,0,1-.21,2,1.39,1.39,0,0,1-.88.31,1.41,1.41,0,0,1-1.1-.52m-3.53-4.5h0a1.41,1.41,0,1,1,2,.28,1.51,1.51,0,0,1-.85.28,1.41,1.41,0,0,1-1.13-.56m-3.38-4.6a1.41,1.41,0,1,1,2.3-1.64,1.4,1.4,0,0,1-.33,2,1.45,1.45,0,0,1-.82.26,1.43,1.43,0,0,1-1.15-.59M39.67,277a1.41,1.41,0,1,1,2,.4,1.39,1.39,0,0,1-.78.23,1.41,1.41,0,0,1-1.18-.63m-3.08-4.82a1.44,1.44,0,0,1,.47-2,1.41,1.41,0,0,1,1.48,2.41,1.42,1.42,0,0,1-1.95-.46m-2.92-4.92h0a1.42,1.42,0,1,1,2.46-1.4h0a1.42,1.42,0,0,1-.53,1.93,1.47,1.47,0,0,1-.7.19,1.43,1.43,0,0,1-1.23-.72m-2.75-5h0a1.4,1.4,0,0,1,.58-1.91,1.42,1.42,0,1,1,1.33,2.5,1.46,1.46,0,0,1-.66.16,1.4,1.4,0,0,1-1.25-.75m-2.6-5.1a1.41,1.41,0,1,1,1.89.65,1.37,1.37,0,0,1-.62.14,1.41,1.41,0,0,1-1.27-.79M25.89,252a1.41,1.41,0,1,1,1.87.71,1.51,1.51,0,0,1-.58.12,1.42,1.42,0,0,1-1.29-.83m-2.26-5.26a1.42,1.42,0,1,1,1.85.77,1.49,1.49,0,0,1-.54.11,1.42,1.42,0,0,1-1.31-.88m-2.08-5.33a1.41,1.41,0,1,1,1.82.83,1.45,1.45,0,0,1-.5.08,1.41,1.41,0,0,1-1.32-.91M19.64,236a1.39,1.39,0,1,1,1.34,1,1.42,1.42,0,0,1-1.34-1m-1.73-5.45h0a1.41,1.41,0,1,1,1.76,1,1.44,1.44,0,0,1-.41,0,1.42,1.42,0,0,1-1.35-1M16.36,225a1.41,1.41,0,1,1,1.73,1,1.56,1.56,0,0,1-.36,0A1.42,1.42,0,0,1,16.36,225M15,219.47a1.41,1.41,0,1,1,2.75-.63,1.4,1.4,0,0,1-1.06,1.69,1.15,1.15,0,0,1-.31,0,1.41,1.41,0,0,1-1.38-1.1m-1.19-5.59A1.41,1.41,0,1,1,15.46,215a1.24,1.24,0,0,1-.27,0,1.43,1.43,0,0,1-1.39-1.15m-1-5.62a1.41,1.41,0,1,1,1.62,1.17l-.23,0a1.41,1.41,0,0,1-1.39-1.19M12,202.62a1.42,1.42,0,0,1,2.81-.37,1.41,1.41,0,0,1-1.22,1.58l-.19,0a1.43,1.43,0,0,1-1.4-1.23m-.63-5.68a1.41,1.41,0,0,1,2.81-.28,1.42,1.42,0,0,1-1.27,1.55h-.14a1.41,1.41,0,0,1-1.4-1.28m-.46-5.69a1.41,1.41,0,1,1,1.5,1.32h-.09a1.42,1.42,0,0,1-1.41-1.32m-.27-5.71a1.41,1.41,0,1,1,1.46,1.37H12a1.41,1.41,0,0,1-1.41-1.37m-.09-5.71a1.41,1.41,0,1,1,1.41,1.42,1.41,1.41,0,0,1-1.41-1.42"/><path class="cls-2" d="M188.28,354.74a1.41,1.41,0,1,1,1.43,1.39h0a1.41,1.41,0,0,1-1.41-1.39m5.66-.14a1.42,1.42,0,0,1,1.34-1.48,1.41,1.41,0,1,1,.14,2.82h-.07a1.41,1.41,0,0,1-1.41-1.34m5.65-.32a1.42,1.42,0,1,1,1.53,1.3H201a1.43,1.43,0,0,1-1.42-1.3m5.65-.5A1.41,1.41,0,1,1,206.8,355h-.16a1.41,1.41,0,0,1-1.4-1.26m5.62-.68a1.41,1.41,0,1,1,2.8-.4,1.4,1.4,0,0,1-1.19,1.59.78.78,0,0,1-.21,0,1.42,1.42,0,0,1-1.4-1.21m5.6-.86a1.41,1.41,0,0,1,1.14-1.64,1.41,1.41,0,1,1,.5,2.78,1.07,1.07,0,0,1-.25,0,1.41,1.41,0,0,1-1.39-1.17m5.57-1a1.42,1.42,0,1,1,1.67,1.09h0l-.3,0A1.41,1.41,0,0,1,222,351.2m5.53-1.22a1.41,1.41,0,1,1,1.71,1,1.37,1.37,0,0,1-.34,0,1.42,1.42,0,0,1-1.37-1.07m5.49-1.41a1.41,1.41,0,0,1,2.71-.77,1.42,1.42,0,0,1-1,1.75,1.65,1.65,0,0,1-.38.05,1.4,1.4,0,0,1-1.36-1m5.44-1.58a1.41,1.41,0,1,1,2.69-.86,1.4,1.4,0,0,1-.92,1.77,1.06,1.06,0,0,1-.43.08,1.41,1.41,0,0,1-1.34-1m5.38-1.76a1.42,1.42,0,1,1,1.8.86,1.5,1.5,0,0,1-.47.08,1.42,1.42,0,0,1-1.33-.94m5.32-1.93a1.42,1.42,0,1,1,1.83.8,1.49,1.49,0,0,1-.51.1,1.44,1.44,0,0,1-1.32-.9m5.25-2.1a1.41,1.41,0,1,1,1.85.74,1.37,1.37,0,0,1-.55.12,1.41,1.41,0,0,1-1.3-.86m5.17-2.27a1.41,1.41,0,1,1,1.88.68,1.44,1.44,0,0,1-.6.13,1.41,1.41,0,0,1-1.28-.81m5.1-2.44a1.41,1.41,0,1,1,1.9.62,1.36,1.36,0,0,1-.64.15,1.41,1.41,0,0,1-1.26-.77m5-2.6a1.41,1.41,0,1,1,1.91.56,1.34,1.34,0,0,1-.67.17,1.41,1.41,0,0,1-1.24-.73m4.93-2.76a1.41,1.41,0,1,1,1.93.49,1.32,1.32,0,0,1-.71.2,1.42,1.42,0,0,1-1.22-.69m4.84-2.92a1.42,1.42,0,1,1,1.19.65,1.42,1.42,0,0,1-1.19-.65m4.75-3.08a1.41,1.41,0,1,1,2.33-1.6,1.43,1.43,0,0,1-.37,2,1.44,1.44,0,0,1-.8.24,1.42,1.42,0,0,1-1.16-.61m4.64-3.23a1.42,1.42,0,0,1,.31-2,1.4,1.4,0,0,1,2,.31,1.42,1.42,0,0,1-.3,2,1.47,1.47,0,0,1-.84.27,1.43,1.43,0,0,1-1.14-.57m4.54-3.38a1.42,1.42,0,1,1,2,.24h0a1.35,1.35,0,0,1-.87.31,1.42,1.42,0,0,1-1.11-.54m4.43-3.53a1.43,1.43,0,1,1,1.09.5,1.39,1.39,0,0,1-1.09-.5m4.31-3.67a1.41,1.41,0,1,1,1.06.48,1.41,1.41,0,0,1-1.06-.48m4.2-3.8a1.41,1.41,0,1,1,2,.05,1.44,1.44,0,0,1-1,.39,1.42,1.42,0,0,1-1-.44m4.07-3.94a1.41,1.41,0,1,1,1,.41,1.42,1.42,0,0,1-1-.41m3.94-4.07a1.4,1.4,0,1,1,1,.38,1.44,1.44,0,0,1-1-.38m3.82-4.19a1.41,1.41,0,1,1,2-.14,1.43,1.43,0,0,1-1.07.49,1.39,1.39,0,0,1-.92-.35m3.67-4.31a1.43,1.43,0,1,1,.89.31,1.4,1.4,0,0,1-.89-.31m3.54-4.43a1.41,1.41,0,1,1,.85.28,1.47,1.47,0,0,1-.85-.28m3.38-4.55a1.42,1.42,0,1,1,.82.26,1.47,1.47,0,0,1-.82-.26m3.25-4.65a1.41,1.41,0,1,1,.77.23,1.34,1.34,0,0,1-.77-.23m3.09-4.76a1.41,1.41,0,0,1,1.48-2.4,1.41,1.41,0,1,1-1.48,2.4m2.93-4.85a1.4,1.4,0,1,1,.7.19,1.5,1.5,0,0,1-.7-.19m2.78-4.95a1.42,1.42,0,1,1,.66.16,1.43,1.43,0,0,1-.66-.16m2.61-5a1.41,1.41,0,1,1,1.89-.65,1.42,1.42,0,0,1-1.89.65m2.45-5.12a1.43,1.43,0,1,1,.58.12,1.51,1.51,0,0,1-.58-.12m2.29-5.2a1.42,1.42,0,1,1,1.84-.77,1.4,1.4,0,0,1-1.84.77m2.11-5.27a1.44,1.44,0,1,1,.49.08,1.4,1.4,0,0,1-.49-.08m1.94-5.35a1.41,1.41,0,0,1,.89-2.68A1.42,1.42,0,0,1,354,236a1.38,1.38,0,0,1-1.78.88m1.75-5.38a1.42,1.42,0,1,1,1.76-1,1.4,1.4,0,0,1-1.35,1,1.48,1.48,0,0,1-.41,0m1.58-5.44a1.4,1.4,0,1,1,.37,0,1.64,1.64,0,0,1-.37,0m1.41-5.49a1.39,1.39,0,1,1,.31,0,1.1,1.1,0,0,1-.31,0m1.23-5.53a1.41,1.41,0,1,1,.54-2.77,1.41,1.41,0,0,1-.28,2.8,1.09,1.09,0,0,1-.26,0m1-5.56a1.48,1.48,0,1,1,.23,0h-.23m.87-5.61a1.41,1.41,0,1,1,.36-2.8,1.42,1.42,0,0,1-.18,2.82l-.18,0m.67-5.62a1.39,1.39,0,1,1,.14,0h-.14m.5-5.64a1.46,1.46,0,1,1,.09,0h-.09m.31-5.66a1.43,1.43,0,1,1,.06,0Zm-1.27-7.08a1.42,1.42,0,1,1,1.41,1.42,1.41,1.41,0,0,1-1.41-1.42"/><path class="cls-2" d="M219.33,145.93a1.42,1.42,0,1,1,1.41,1.41,1.41,1.41,0,0,1-1.41-1.41m-5.65,0a1.41,1.41,0,1,1,1.41,1.41,1.41,1.41,0,0,1-1.41-1.41m-5.65,0a1.41,1.41,0,1,1,1.41,1.41,1.41,1.41,0,0,1-1.41-1.41m-5.66,0a1.42,1.42,0,1,1,1.41,1.41,1.42,1.42,0,0,1-1.41-1.41m-5.65,0a1.42,1.42,0,1,1,1.41,1.41,1.41,1.41,0,0,1-1.41-1.41m-5.65,0a1.42,1.42,0,1,1,1.41,1.41,1.41,1.41,0,0,1-1.41-1.41m-5.65,0a1.42,1.42,0,1,1,1.41,1.41,1.41,1.41,0,0,1-1.41-1.41m-5.65,0a1.41,1.41,0,1,1,1.41,1.41,1.41,1.41,0,0,1-1.41-1.41m-5.65,0a1.41,1.41,0,1,1,1.41,1.41,1.41,1.41,0,0,1-1.41-1.41m-5.65,0a1.41,1.41,0,1,1,1.41,1.41,1.4,1.4,0,0,1-1.41-1.41m-5.66,0a1.42,1.42,0,1,1,1.41,1.41,1.41,1.41,0,0,1-1.41-1.41m-5.65,0a1.42,1.42,0,1,1,1.41,1.41,1.41,1.41,0,0,1-1.41-1.41m-5.65,0a1.41,1.41,0,1,1,1.41,1.41,1.41,1.41,0,0,1-1.41-1.41"/><path class="cls-2" d="M219.33,213.75a1.42,1.42,0,1,1,1.41,1.41,1.42,1.42,0,0,1-1.41-1.41m-5.65,0a1.41,1.41,0,1,1,1.41,1.41,1.42,1.42,0,0,1-1.41-1.41m-5.65,0a1.41,1.41,0,1,1,1.41,1.41,1.42,1.42,0,0,1-1.41-1.41m-5.66,0a1.42,1.42,0,1,1,1.41,1.41,1.42,1.42,0,0,1-1.41-1.41m-5.65,0a1.42,1.42,0,1,1,1.41,1.41,1.42,1.42,0,0,1-1.41-1.41m-5.65,0a1.42,1.42,0,1,1,1.41,1.41,1.42,1.42,0,0,1-1.41-1.41m-5.65,0a1.42,1.42,0,1,1,1.41,1.41,1.42,1.42,0,0,1-1.41-1.41m-5.65,0a1.41,1.41,0,1,1,1.41,1.41,1.42,1.42,0,0,1-1.41-1.41m-5.65,0a1.41,1.41,0,1,1,1.41,1.41,1.42,1.42,0,0,1-1.41-1.41m-5.65,0a1.41,1.41,0,1,1,1.41,1.41,1.41,1.41,0,0,1-1.41-1.41m-5.66,0a1.42,1.42,0,1,1,1.41,1.41,1.42,1.42,0,0,1-1.41-1.41m-5.65,0a1.42,1.42,0,1,1,1.41,1.41,1.42,1.42,0,0,1-1.41-1.41m-5.65,0a1.41,1.41,0,1,1,1.41,1.41,1.42,1.42,0,0,1-1.41-1.41"/><polygon class="cls-3" points="10.13 326.03 8.59 328.7 11.68 328.7 10.13 326.03"/><polygon class="cls-3" points="15.66 326.03 14.11 328.7 17.2 328.7 15.66 326.03"/><polygon class="cls-3" points="21.18 326.03 19.64 328.7 22.72 328.7 21.18 326.03"/><polygon class="cls-3" points="26.7 326.03 25.16 328.7 28.24 328.7 26.7 326.03"/><polygon class="cls-3" points="32.22 326.03 30.68 328.7 33.76 328.7 32.22 326.03"/><polygon class="cls-3" points="37.75 326.03 36.2 328.7 39.29 328.7 37.75 326.03"/><polygon class="cls-3" points="43.26 326.03 41.72 328.7 44.8 328.7 43.26 326.03"/><polygon class="cls-3" points="48.79 326.03 47.24 328.7 50.33 328.7 48.79 326.03"/><polygon class="cls-3" points="54.31 326.03 52.77 328.7 55.85 328.7 54.31 326.03"/><polygon class="cls-3" points="59.83 326.03 58.29 328.7 61.38 328.7 59.83 326.03"/><polygon class="cls-3" points="65.35 326.03 63.81 328.7 66.89 328.7 65.35 326.03"/><polygon class="cls-3" points="70.88 326.03 69.33 328.7 72.42 328.7 70.88 326.03"/><polygon class="cls-3" points="76.4 326.03 74.85 328.7 77.94 328.7 76.4 326.03"/><polygon class="cls-3" points="81.92 326.03 80.37 328.7 83.46 328.7 81.92 326.03"/><polygon class="cls-3" points="87.44 326.03 85.9 328.7 88.98 328.7 87.44 326.03"/><polygon class="cls-3" points="98.48 326.03 96.94 328.7 100.02 328.7 98.48 326.03"/><polygon class="cls-3" points="104.01 326.03 102.46 328.7 105.55 328.7 104.01 326.03"/><polygon class="cls-3" points="109.53 326.03 107.99 328.7 111.07 328.7 109.53 326.03"/><polygon class="cls-3" points="115.05 326.03 113.51 328.7 116.59 328.7 115.05 326.03"/><polygon class="cls-3" points="120.57 326.03 119.03 328.7 122.11 328.7 120.57 326.03"/><polygon class="cls-3" points="126.09 326.03 124.55 328.7 127.64 328.7 126.09 326.03"/><polygon class="cls-3" points="131.62 326.03 130.07 328.7 133.16 328.7 131.62 326.03"/><polygon class="cls-3" points="137.14 326.03 135.59 328.7 138.68 328.7 137.14 326.03"/><polygon class="cls-3" points="142.66 326.03 141.12 328.7 144.2 328.7 142.66 326.03"/><polygon class="cls-3" points="148.18 326.03 146.64 328.7 149.72 328.7 148.18 326.03"/><polygon class="cls-3" points="153.7 326.03 152.16 328.7 155.24 328.7 153.7 326.03"/><polygon class="cls-3" points="159.22 326.03 157.68 328.7 160.77 328.7 159.22 326.03"/><polygon class="cls-3" points="164.74 326.03 163.2 328.7 166.28 328.7 164.74 326.03"/><polygon class="cls-3" points="170.27 326.03 168.72 328.7 171.81 328.7 170.27 326.03"/><polygon class="cls-3" points="175.79 326.03 174.25 328.7 177.33 328.7 175.79 326.03"/><polygon class="cls-3" points="181.31 326.03 179.77 328.7 182.85 328.7 181.31 326.03"/><polygon class="cls-3" points="186.83 326.03 185.29 328.7 188.37 328.7 186.83 326.03"/><polygon class="cls-3" points="192.35 326.03 190.81 328.7 193.89 328.7 192.35 326.03"/><polygon class="cls-3" points="197.88 326.03 196.33 328.7 199.42 328.7 197.88 326.03"/><polygon class="cls-3" points="203.4 326.03 201.86 328.7 204.94 328.7 203.4 326.03"/><polygon class="cls-3" points="208.92 326.03 207.38 328.7 210.46 328.7 208.92 326.03"/><polygon class="cls-3" points="214.44 326.03 212.9 328.7 215.98 328.7 214.44 326.03"/><polygon class="cls-3" points="219.96 326.03 218.42 328.7 221.5 328.7 219.96 326.03"/><polygon class="cls-3" points="225.49 326.03 223.94 328.7 227.03 328.7 225.49 326.03"/><polygon class="cls-3" points="231.01 326.03 229.46 328.7 232.55 328.7 231.01 326.03"/><polygon class="cls-3" points="236.53 326.03 234.99 328.7 238.07 328.7 236.53 326.03"/><polygon class="cls-3" points="242.05 326.03 240.51 328.7 243.59 328.7 242.05 326.03"/><polygon class="cls-3" points="247.57 326.03 246.03 328.7 249.11 328.7 247.57 326.03"/><polygon class="cls-3" points="253.09 326.03 251.55 328.7 254.63 328.7 253.09 326.03"/><polygon class="cls-3" points="258.62 326.03 257.07 328.7 260.15 328.7 258.62 326.03"/><polygon class="cls-3" points="264.13 326.03 262.6 328.7 265.68 328.7 264.13 326.03"/><polygon class="cls-3" points="269.66 326.03 268.12 328.7 271.2 328.7 269.66 326.03"/><polygon class="cls-3" points="275.18 326.03 273.64 328.7 276.73 328.7 275.18 326.03"/><polygon class="cls-3" points="286.22 326.03 284.68 328.7 287.76 328.7 286.22 326.03"/><polygon class="cls-3" points="291.75 326.03 290.2 328.7 293.29 328.7 291.75 326.03"/><polygon class="cls-3" points="297.27 326.03 295.73 328.7 298.81 328.7 297.27 326.03"/><polygon class="cls-3" points="302.79 326.03 301.25 328.7 304.33 328.7 302.79 326.03"/><polygon class="cls-3" points="308.31 326.03 306.77 328.7 309.85 328.7 308.31 326.03"/><polygon class="cls-3" points="313.83 326.03 312.29 328.7 315.37 328.7 313.83 326.03"/><polygon class="cls-3" points="319.36 326.03 317.81 328.7 320.9 328.7 319.36 326.03"/><polygon class="cls-3" points="324.88 326.03 323.33 328.7 326.42 328.7 324.88 326.03"/><polygon class="cls-3" points="330.4 326.03 328.86 328.7 331.94 328.7 330.4 326.03"/><polygon class="cls-3" points="335.92 326.03 334.38 328.7 337.46 328.7 335.92 326.03"/><polygon class="cls-3" points="341.44 326.03 339.9 328.7 342.98 328.7 341.44 326.03"/><polygon class="cls-3" points="346.96 326.03 345.42 328.7 348.5 328.7 346.96 326.03"/><polygon class="cls-3" points="352.49 326.03 350.94 328.7 354.02 328.7 352.49 326.03"/><polygon class="cls-3" points="358 326.03 356.46 328.7 359.55 328.7 358 326.03"/><polygon class="cls-3" points="363.53 326.03 361.98 328.7 365.07 328.7 363.53 326.03"/><polygon class="cls-4" points="363.53 33.64 365.07 30.97 361.98 30.97 363.53 33.64"/><polygon class="cls-4" points="358 33.64 359.55 30.97 356.46 30.97 358 33.64"/><polygon class="cls-4" points="352.49 33.64 354.02 30.97 350.94 30.97 352.49 33.64"/><polygon class="cls-4" points="346.96 33.64 348.5 30.97 345.42 30.97 346.96 33.64"/><polygon class="cls-4" points="341.44 33.64 342.98 30.97 339.9 30.97 341.44 33.64"/><polygon class="cls-4" points="335.92 33.64 337.46 30.97 334.38 30.97 335.92 33.64"/><polygon class="cls-4" points="330.4 33.64 331.94 30.97 328.86 30.97 330.4 33.64"/><polygon class="cls-4" points="324.88 33.64 326.42 30.97 323.33 30.97 324.88 33.64"/><polygon class="cls-4" points="319.36 33.64 320.9 30.97 317.81 30.97 319.36 33.64"/><polygon class="cls-4" points="313.83 33.64 315.37 30.97 312.29 30.97 313.83 33.64"/><polygon class="cls-4" points="308.31 33.64 309.85 30.97 306.77 30.97 308.31 33.64"/><polygon class="cls-4" points="302.79 33.64 304.33 30.97 301.25 30.97 302.79 33.64"/><polygon class="cls-4" points="297.27 33.64 298.81 30.97 295.73 30.97 297.27 33.64"/><polygon class="cls-4" points="291.75 33.64 293.29 30.97 290.2 30.97 291.75 33.64"/><polygon class="cls-4" points="286.22 33.64 287.76 30.97 284.68 30.97 286.22 33.64"/><polygon class="cls-4" points="275.18 33.64 276.73 30.97 273.64 30.97 275.18 33.64"/><polygon class="cls-4" points="269.66 33.64 271.2 30.97 268.12 30.97 269.66 33.64"/><polygon class="cls-4" points="264.13 33.64 265.68 30.97 262.6 30.97 264.13 33.64"/><polygon class="cls-4" points="258.62 33.64 260.15 30.97 257.07 30.97 258.62 33.64"/><polygon class="cls-4" points="253.09 33.64 254.63 30.97 251.55 30.97 253.09 33.64"/><polygon class="cls-4" points="247.57 33.64 249.11 30.97 246.03 30.97 247.57 33.64"/><polygon class="cls-4" points="242.05 33.64 243.59 30.97 240.51 30.97 242.05 33.64"/><polygon class="cls-4" points="236.53 33.64 238.07 30.97 234.99 30.97 236.53 33.64"/><polygon class="cls-4" points="231.01 33.64 232.55 30.97 229.46 30.97 231.01 33.64"/><polygon class="cls-4" points="225.49 33.64 227.03 30.97 223.94 30.97 225.49 33.64"/><polygon class="cls-4" points="219.96 33.64 221.5 30.97 218.42 30.97 219.96 33.64"/><polygon class="cls-4" points="214.44 33.64 215.98 30.97 212.9 30.97 214.44 33.64"/><polygon class="cls-4" points="208.92 33.64 210.46 30.97 207.38 30.97 208.92 33.64"/><polygon class="cls-4" points="203.4 33.64 204.94 30.97 201.86 30.97 203.4 33.64"/><polygon class="cls-4" points="197.88 33.64 199.42 30.97 196.33 30.97 197.88 33.64"/><polygon class="cls-4" points="192.35 33.64 193.89 30.97 190.81 30.97 192.35 33.64"/><polygon class="cls-4" points="186.83 33.64 188.37 30.97 185.29 30.97 186.83 33.64"/><polygon class="cls-4" points="181.31 33.64 182.85 30.97 179.77 30.97 181.31 33.64"/><polygon class="cls-4" points="175.79 33.64 177.33 30.97 174.25 30.97 175.79 33.64"/><polygon class="cls-4" points="170.27 33.64 171.81 30.97 168.72 30.97 170.27 33.64"/><polygon class="cls-4" points="164.74 33.64 166.28 30.97 163.2 30.97 164.74 33.64"/><polygon class="cls-4" points="159.22 33.64 160.77 30.97 157.68 30.97 159.22 33.64"/><polygon class="cls-4" points="153.7 33.64 155.24 30.97 152.16 30.97 153.7 33.64"/><polygon class="cls-4" points="148.18 33.64 149.72 30.97 146.64 30.97 148.18 33.64"/><polygon class="cls-4" points="142.66 33.64 144.2 30.97 141.12 30.97 142.66 33.64"/><polygon class="cls-4" points="137.14 33.64 138.68 30.97 135.59 30.97 137.14 33.64"/><polygon class="cls-4" points="131.62 33.64 133.16 30.97 130.07 30.97 131.62 33.64"/><polygon class="cls-4" points="126.09 33.64 127.64 30.97 124.55 30.97 126.09 33.64"/><polygon class="cls-4" points="120.57 33.64 122.11 30.97 119.03 30.97 120.57 33.64"/><polygon class="cls-4" points="115.05 33.64 116.59 30.97 113.51 30.97 115.05 33.64"/><polygon class="cls-4" points="109.53 33.64 111.07 30.97 107.99 30.97 109.53 33.64"/><polygon class="cls-4" points="104.01 33.64 105.55 30.97 102.46 30.97 104.01 33.64"/><polygon class="cls-4" points="98.48 33.64 100.02 30.97 96.94 30.97 98.48 33.64"/><polygon class="cls-4" points="87.44 33.64 88.98 30.97 85.9 30.97 87.44 33.64"/><polygon class="cls-4" points="81.92 33.64 83.46 30.97 80.37 30.97 81.92 33.64"/><polygon class="cls-4" points="76.4 33.64 77.94 30.97 74.85 30.97 76.4 33.64"/><polygon class="cls-4" points="70.88 33.64 72.42 30.97 69.33 30.97 70.88 33.64"/><polygon class="cls-4" points="65.35 33.64 66.89 30.97 63.81 30.97 65.35 33.64"/><polygon class="cls-4" points="59.83 33.64 61.38 30.97 58.29 30.97 59.83 33.64"/><polygon class="cls-4" points="54.31 33.64 55.85 30.97 52.77 30.97 54.31 33.64"/><polygon class="cls-4" points="48.79 33.64 50.33 30.97 47.24 30.97 48.79 33.64"/><polygon class="cls-4" points="43.26 33.64 44.8 30.97 41.72 30.97 43.26 33.64"/><polygon class="cls-4" points="37.75 33.64 39.29 30.97 36.2 30.97 37.75 33.64"/><polygon class="cls-4" points="32.22 33.64 33.76 30.97 30.68 30.97 32.22 33.64"/><polygon class="cls-4" points="26.7 33.64 28.24 30.97 25.16 30.97 26.7 33.64"/><polygon class="cls-4" points="21.18 33.64 22.72 30.97 19.64 30.97 21.18 33.64"/><polygon class="cls-4" points="15.66 33.64 17.2 30.97 14.11 30.97 15.66 33.64"/><polygon class="cls-4" points="10.13 33.64 11.68 30.97 8.59 30.97 10.13 33.64"/><rect class="cls-5" x="7" width="360" height="360"/></g><g id="white-20"><rect class="cls-6" x="6.5" y="-0.5" width="361" height="361"/></g></svg>