<svg version="1.1" xmlns="http://www.w3.org/2000/svg" xmlns:xlink="http://www.w3.org/1999/xlink" width="129.17534" height="65.18983" viewBox="0,0,129.17534,65.18983"><g transform="translate(-167.88252,-165.33491)"><g data-paper-data="{&quot;isPaintingLayer&quot;:true}" fill="none" fill-rule="nonzero" stroke="none" stroke-width="none" stroke-linecap="none" stroke-linejoin="miter" stroke-miterlimit="10" stroke-dasharray="" stroke-dashoffset="0" font-family="none" font-weight="none" font-size="none" text-anchor="none" style="mix-blend-mode: normal"><path d="M221.3,167.1305c2.20292,0 4.31763,0.08592 6.36199,0.25402c1.58292,3.92549 4.01419,7.51766 6.66464,10.07463c2.1479,2.07214 7.6689,3.33571 10.47627,4.03755c1.63147,0.40787 4.3792,-0.41836 6.12471,0.29267c0.80569,0.3282 1.44546,3.15407 2.12767,3.90891c1.62554,1.79861 3.88747,2.70409 5.39596,4.49456c0.30428,0.36115 -0.48735,2.19779 -0.48735,2.60579c0,2.43939 0.44014,5.46904 1.40072,7.75878c2.666,6.35497 7.09618,11.14784 12.40548,15.28521c-2.91504,5.07254 -7.83262,7.58526 -12.12008,9.09757c-11.446,4.0194 -23.406,4.6185 -35.15,4.1348c-13.222,0.011 -26.656,-0.4181 -39.536,-5.5484c-4.868,-1.938 -9.207,-7.6768 -12.114,-14.0335c-1.865,-4.2441 -3.283,-11.4106 -1.55,-16.5394c2.893,-7.3506 8.09,-13.0364 13.664,-16.1399c11.563,-6.402 22.155,-9.6833 36.336,-9.6833z" id="ID0.9443309367634356" fill="#a85b00" stroke="#703d00" stroke-width="2.61452" stroke-linecap="round"/><path d="M221.1613,167.2359c2.24164,0 4.39028,0.0158 6.4655,0.06096c1.58194,3.95965 4.02966,7.5863 6.69983,10.1623c2.1479,2.07214 7.6689,3.33571 10.47627,4.03755c1.63147,0.40787 4.3792,-0.41836 6.12471,0.29267c0.80569,0.3282 1.44546,3.15407 2.12767,3.90891c1.62554,1.79861 3.88747,2.70409 5.39596,4.49456c0.30428,0.36115 -0.48735,2.19779 -0.48735,2.60579c0,1.60168 0.18975,3.45783 0.59198,5.19192c-0.35824,0.1225 -0.70649,0.23518 -1.04146,0.33814c-11.9632,3.6755 -24.2445,4.5535 -36.6459,4.352c-12.4325,0.0028 -25.4135,-1.5404 -37.7143,-5.7078c-4.0974,-1.3826 -10.3375,-4.951 -9.8067,-10.2882c0.2966,-6.862 6.53,-12.1527 11.4607,-14.1102c11.7299,-4.6537 22.1651,-5.3386 36.3531,-5.3386z" id="ID0.20980827091261744" fill="#a85b00" stroke="#703d00" stroke-width="2.4183" stroke-linecap="round"/><path d="M224,170.2c1.68059,0.04024 3.36575,0.09161 5.05319,0.15813c1.46706,2.74484 3.31011,5.20694 5.27343,7.10102c2.1479,2.07214 7.6689,3.33571 10.47627,4.03755c1.63147,0.40787 4.3792,-0.41836 6.12471,0.29267c0.80569,0.3282 1.44546,3.15407 2.12767,3.90891c1.62554,1.79861 3.88747,2.70409 5.39596,4.49456c0.30428,0.36115 -0.48735,2.19779 -0.48735,2.60579c0,2.43939 0.44014,5.46904 1.40072,7.75878c0.75948,1.81037 1.66212,3.49397 2.68748,5.07176c-0.26985,0.7912 -0.6864,1.43061 -1.35208,1.77082c-4.3,2.174 -12.044,-4.568 -14.45,-1.05c-2.726,3.995 5.332,10.527 3.6,15.5c-0.853,3.228 -7.367,5.247 -9.3,2.6c-3.684,-5.05 0.54,-13.195 -2.6,-18.6c-1.649,-2.845 -6.852,-2.975 -9.3,-1.05c-4.601,3.631 -4.068,11.637 -8.75,15c-2.505,1.797 -6.482,0.54 -8.8,-1.05c-5.86,-4.952 -7.327,-16.19 -14.45,-17.55c-5.374,-1.033 -8.221,12.954 -11.9,11.35c-4.157,-1.832 0.506,-15.752 -3.1,-19.1c-2.229,-2.06 -6.49,9.902 -8.75,8.25c-2.626,-2.233 -2.936,-11.016 -1.05,-16c1.968,-5.04 6.556,-9.716 11.758,-11.162c13.007,-3.611 26.872,-4.135 40.392,-4.338z" id="ID0.28453653072938323" fill="#703d00" stroke="#703d00" stroke-width="1.99513" stroke-linecap="round"/><path d="M222.25,166.3534c1.68691,0.04155 3.37914,0.0905 5.07411,0.15268c1.56143,4.26551 4.15553,8.2065 7.00251,10.95307c2.1479,2.07214 7.6689,3.33571 10.47627,4.03755c1.63147,0.40787 4.3792,-0.41836 6.12471,0.29267c0.80569,0.3282 1.44546,3.15407 2.12767,3.90891c1.62554,1.79861 3.88747,2.70409 5.39596,4.49456c0.30428,0.36115 -0.48735,2.19779 -0.48735,2.60579c0,2.43939 0.44014,5.46904 1.40072,7.75878c0.3012,0.71798 0.62492,1.41601 0.96988,2.09542c-0.25451,0.87864 -0.67196,1.59436 -1.38449,1.96896c-4.3,2.2364 -12.044,-4.6992 -14.45,-1.0802c-2.726,4.1098 5.332,10.8294 3.6,15.9452c-0.853,3.3207 -7.367,5.3977 -9.3,2.6747c-3.684,-5.1951 0.54,-13.574 -2.6,-19.1342c-1.649,-2.9267 -6.852,-3.0605 -9.3,-1.0802c-4.601,3.7353 -4.068,11.9712 -8.75,15.4308c-2.505,1.8486 -6.482,0.5555 -8.8,-1.0801c-5.86,-5.0942 -7.327,-16.655 -14.45,-18.0541c-5.374,-1.0626 -8.221,13.3261 -11.9,11.676c-4.157,-1.8846 0.506,-16.2044 -3.1,-19.6486c-2.229,-2.1191 -6.49,10.1864 -8.75,8.487c-2.626,-2.2971 -2.936,-11.3324 -1.05,-16.4595c1.968,-5.1848 6.556,-9.9951 11.758,-11.4826c13.007,-3.7147 26.872,-4.2538 40.392,-4.4626z" data-paper-data="{&quot;origPos&quot;:null}" id="ID0.28453653072938323" fill="#f3a2b9" stroke="#f3a2b9" stroke-width="2.02398" stroke-linecap="butt"/><path d="" data-paper-data="{&quot;origPos&quot;:null}" id="ID0.28453653072938323" fill="#f3a2b9" stroke="#f3a2b9" stroke-width="2.02398" stroke-linecap="butt"/><path d="M223.625,177.65c3.276,0 6.245,0.23 8.395,0.601c2.149,0.371 3.48,0.883 3.48,1.449c0,0.566 -1.331,1.078 -3.48,1.449c-2.15,0.371 -5.119,0.601 -8.395,0.601c-3.276,0 -6.245,-0.23 -8.395,-0.601c-2.149,-0.371 -3.48,-0.883 -3.48,-1.449c0,-0.566 1.331,-1.078 3.48,-1.449c2.15,-0.371 5.119,-0.601 8.395,-0.601z" id="ID0.7229506736621261" fill="#a85b00" stroke="#703d00" stroke-width="1.99513" stroke-linecap="butt"/><path d="M200.55339,177.15l-5.15,1" data-paper-data="{&quot;origPos&quot;:null}" id="ID0.9467714759521186" fill="none" stroke="#ffef38" stroke-width="1.99513" stroke-linecap="round"/><path d="M218.45,190.55h-6.2" data-paper-data="{&quot;origPos&quot;:null}" id="ID0.23042773781344295" fill="none" stroke="#6fe2ff" stroke-width="1.99513" stroke-linecap="round"/><path d="M185.05339,179.7l-4.65,4.65" data-paper-data="{&quot;origPos&quot;:null}" id="ID0.702816660515964" fill="none" stroke="#ffef38" stroke-width="1.99513" stroke-linecap="round"/><path d="M186.45,190.55l4.1,-1" id="ID0.6778297000564635" fill="none" stroke="#ffffff" stroke-width="1.99513" stroke-linecap="round"/><path d="M210.2,170.95l4.15,3.6" id="ID0.7210087068378925" fill="none" stroke="#ffffff" stroke-width="1.99513" stroke-linecap="round"/><path d="M216.9,202.95l-4.1,3.65" id="ID0.2551163868047297" fill="none" stroke="#ffffff" stroke-width="1.99513" stroke-linecap="round"/><path d="M238.6,200.4l-4.15,-3.1" id="ID0.3400295590981841" fill="none" stroke="#ffffff" stroke-width="1.99513" stroke-linecap="round"/><path d="M247.9,197.8l-0.5,3.1z" id="ID0.8367559141479433" fill="none" stroke="#ffffff" stroke-width="1.99513" stroke-linecap="round"/><path d="M180.75,175.05l-5.7,2.1" id="ID0.9062348022125661" fill="none" stroke="#ffffff" stroke-width="1.99513" stroke-linecap="round"/><path d="M190.55,176.1l-1.55,-3.6z" id="ID0.021216348744928837" fill="none" stroke="#ffffff" stroke-width="1.99513" stroke-linecap="round"/><path d="M233.45,187.45l-0.55,-2.55z" id="ID0.7581375841982663" fill="none" stroke="#ffffff" stroke-width="1.99513" stroke-linecap="round"/><path d="M202.95,184.9l-3.1,6.7" data-paper-data="{&quot;origPos&quot;:null}" id="ID0.8662396180443466" fill="none" stroke="#6fe2ff" stroke-width="1.99513" stroke-linecap="round"/><path d="M227.25,169.9h-6.2" data-paper-data="{&quot;origPos&quot;:null}" id="ID0.7959343986585736" fill="none" stroke="#6fe2ff" stroke-width="1.99513" stroke-linecap="round"/><path d="M223.80339,198.3l6.2,-2.05" data-paper-data="{&quot;origPos&quot;:null}" id="ID0.47782517969608307" fill="none" stroke="#ffef38" stroke-width="1.99513" stroke-linecap="round"/><path d="M247.9,190.55l-5.7,-2.05" data-paper-data="{&quot;origPos&quot;:null}" id="ID0.0538422497920692" fill="none" stroke="#6fe2ff" stroke-width="1.99513" stroke-linecap="round"/><path d="M192.1,197.3l-5.15,2.05" data-paper-data="{&quot;origPos&quot;:null}" id="ID0.7071157796308398" fill="none" stroke="#6fe2ff" stroke-width="1.99513" stroke-linecap="round"/><path d="M174.05,186.95v-4.15" data-paper-data="{&quot;origPos&quot;:null}" id="ID0.3825798323377967" fill="none" stroke="#6fe2ff" stroke-width="1.99513" stroke-linecap="round"/><path d="M203.5,168.9l-4.65,0.5" data-paper-data="{&quot;origPos&quot;:null}" id="ID0.12323137884959579" fill="none" stroke="#6fe2ff" stroke-width="1.99513" stroke-linecap="round"/><path d="M265.81229,174.29387c-2.21625,1.10813 -4.41696,-1.47616 -6.31725,-2.4263l-0.66901,-0.3345c-0.42281,-0.20043 -0.7152,-0.63114 -0.7152,-1.13014c0,-0.09934 0.01159,-0.19597 0.03348,-0.28861c2.09214,0.14709 4.78824,0.32 7.67208,0.32465c-0.11184,0.83068 -0.08063,1.70158 0.11961,2.60267c0.06464,0.2909 0.15637,0.63331 0.27381,1.01426c-0.13097,0.08226 -0.26367,0.16162 -0.39753,0.23798z" fill="#a85b00" stroke="none" stroke-width="0.5" stroke-linecap="butt"/><path d="" fill="#9966ff" stroke="none" stroke-width="0.5" stroke-linecap="butt"/><path d="" fill="#9966ff" stroke="none" stroke-width="0.5" stroke-linecap="butt"/><path d="" fill="#9966ff" stroke="none" stroke-width="0.5" stroke-linecap="butt"/><path d="" fill="#9966ff" stroke="none" stroke-width="0.5" stroke-linecap="butt"/><path d="" fill="#9966ff" stroke="none" stroke-width="0.5" stroke-linecap="butt"/><path d="M289.38205,201.60869c1.20257,-0.40086 2.47765,-0.86735 3.67999,-1.45431c0.33127,-0.0346 0.66489,-0.07325 1.00365,-0.11548c0.55902,-0.06969 1.34557,-0.4834 1.68963,-0.03732c1.6998,2.20387 0.46019,4.49587 -1.58143,5.37842c-0.97635,-0.8769 -1.81735,-1.4948 -2.33942,-1.6456c-0.74228,-0.48186 -1.55249,-0.86794 -2.41312,-1.14071c-0.1685,-0.08691 -0.33667,-0.17034 -0.50423,-0.24713c0.04332,-0.21306 0.07988,-0.42859 0.10942,-0.64634c0.11907,-0.02203 0.2376,-0.05223 0.35551,-0.09153z" data-paper-data="{&quot;origPos&quot;:null}" fill="#a85b00" stroke="none" stroke-width="0.5" stroke-linecap="butt"/><path d="" data-paper-data="{&quot;origPos&quot;:null}" fill="#a85b00" stroke="none" stroke-width="0.5" stroke-linecap="butt"/><path d="M295.06209,180.59119c0.36919,0 1.56797,-0.17907 1.99577,-0.03817c-0.8077,1.09624 -1.39699,2.36329 -1.7037,3.73694c-1.45909,-1.31628 -3.25236,-2.40834 -5.16112,-3.24917c1.64023,-0.326 3.37369,-0.4496 4.86905,-0.4496z" fill="#a85b00" stroke="none" stroke-width="0.5" stroke-linecap="butt"/></g></g></svg>