<svg id="レイヤー_1" data-name="レイヤー 1" xmlns="http://www.w3.org/2000/svg" viewBox="0 0 360 360"><defs><style>.cls-1{fill:#fff;}.cls-1,.cls-3{stroke:#dcdddd;}.cls-1,.cls-2,.cls-3,.cls-4{stroke-miterlimit:10;}.cls-2,.cls-3,.cls-4{fill:none;}.cls-2{stroke:#efefef;}.cls-4{stroke:#c9caca;}</style></defs><title>toio-vp_tc-mat-grid</title><rect class="cls-1" x="0.5" y="0.5" width="359" height="359" rx="5.17" transform="translate(360 0) rotate(90)"/><line class="cls-2" y1="350" x2="360" y2="350"/><line class="cls-2" y1="340" x2="360" y2="340"/><line class="cls-2" y1="320" x2="360" y2="320"/><line class="cls-2" y1="310" x2="360" y2="310"/><line class="cls-2" y1="300" x2="360" y2="300"/><line class="cls-2" y1="290" x2="360" y2="290"/><line class="cls-2" y1="270" x2="360" y2="270"/><line class="cls-2" y1="260" x2="360" y2="260"/><line class="cls-2" y1="250" x2="360" y2="250"/><line class="cls-2" y1="240" x2="360" y2="240"/><line class="cls-2" y1="220" x2="360" y2="220"/><line class="cls-2" y1="210" x2="360" y2="210"/><line class="cls-2" y1="200" x2="360" y2="200"/><line class="cls-2" y1="190" x2="360" y2="190"/><line class="cls-2" y1="170" x2="360" y2="170"/><line class="cls-2" y1="160" x2="360" y2="160"/><line class="cls-2" y1="150" x2="360" y2="150"/><line class="cls-2" y1="140" x2="360" y2="140"/><line class="cls-2" y1="120" x2="360" y2="120"/><line class="cls-2" y1="110" x2="360" y2="110"/><line class="cls-2" y1="100" x2="360" y2="100"/><line class="cls-2" y1="90" x2="360" y2="90"/><line class="cls-2" y1="70" x2="360" y2="70"/><line class="cls-2" y1="60" x2="360" y2="60"/><line class="cls-2" y1="50" x2="360" y2="50"/><line class="cls-2" y1="40" x2="360" y2="40"/><line class="cls-2" y1="20" x2="360" y2="20"/><line class="cls-2" y1="10" x2="360" y2="10"/><line class="cls-2" x1="350" x2="350" y2="360"/><line class="cls-2" x1="340" x2="340" y2="360"/><line class="cls-2" x1="320" x2="320" y2="360"/><line class="cls-2" x1="310" x2="310" y2="360"/><line class="cls-2" x1="300" x2="300" y2="360"/><line class="cls-2" x1="290" x2="290" y2="360"/><line class="cls-2" x1="270" x2="270" y2="360"/><line class="cls-2" x1="260" x2="260" y2="360"/><line class="cls-2" x1="250" x2="250" y2="360"/><line class="cls-2" x1="240" x2="240" y2="360"/><line class="cls-2" x1="220" x2="220" y2="360"/><line class="cls-2" x1="210" x2="210" y2="360"/><line class="cls-2" x1="200" x2="200" y2="360"/><line class="cls-2" x1="190" x2="190" y2="360"/><line class="cls-2" x1="170" x2="170" y2="360"/><line class="cls-2" x1="160" x2="160" y2="360"/><line class="cls-2" x1="150" x2="150" y2="360"/><line class="cls-2" x1="140" x2="140" y2="360"/><line class="cls-2" x1="120" x2="120" y2="360"/><line class="cls-2" x1="110" x2="110" y2="360"/><line class="cls-2" x1="100" x2="100" y2="360"/><line class="cls-2" x1="90" x2="90" y2="360"/><line class="cls-2" x1="70" x2="70" y2="360"/><line class="cls-2" x1="60" x2="60" y2="360"/><line class="cls-2" x1="50" x2="50" y2="360"/><line class="cls-2" x1="40" x2="40" y2="360"/><line class="cls-2" x1="20" x2="20" y2="360"/><line class="cls-2" x1="10" x2="10" y2="360"/><line class="cls-3" y1="330" x2="360" y2="330"/><line class="cls-3" y1="280" x2="360" y2="280"/><line class="cls-3" y1="230" x2="360" y2="230"/><line class="cls-3" y1="130" x2="360" y2="130"/><line class="cls-3" y1="80" x2="360" y2="80"/><line class="cls-3" y1="30" x2="360" y2="30"/><line class="cls-3" x1="330" x2="330" y2="360"/><line class="cls-3" x1="280" x2="280" y2="360"/><line class="cls-3" x1="230" x2="230" y2="360"/><line class="cls-3" x1="130" x2="130" y2="360"/><line class="cls-3" x1="80" x2="80" y2="360"/><line class="cls-3" x1="30" x2="30" y2="360"/><line class="cls-4" x1="180" x2="180" y2="360"/><line class="cls-4" y1="180" x2="360" y2="180"/><circle class="cls-4" cx="180" cy="180" r="2"/></svg>