<svg version="1.1" xmlns="http://www.w3.org/2000/svg" xmlns:xlink="http://www.w3.org/1999/xlink" width="77.45528" height="38.5484" viewBox="0,0,77.45528,38.5484"><defs><linearGradient x1="201.29256" y1="176.48296" x2="278.74784" y2="176.48296" gradientUnits="userSpaceOnUse" id="color-1"><stop offset="0" stop-color="#fbb040"/><stop offset="1" stop-color="#f15a29"/></linearGradient><linearGradient x1="204.19901" y1="176.48222" x2="275.84069" y2="176.48222" gradientUnits="userSpaceOnUse" id="color-2"><stop offset="0" stop-color="#ed7340"/><stop offset="0.5181" stop-color="#f4aa46"/><stop offset="1" stop-color="#f29746"/></linearGradient></defs><g transform="translate(-201.29263,-157.20898)"><g data-paper-data="{&quot;isPaintingLayer&quot;:true}" fill-rule="nonzero" stroke="none" stroke-width="1" stroke-linecap="butt" stroke-linejoin="miter" stroke-miterlimit="10" stroke-dasharray="" stroke-dashoffset="0" style="mix-blend-mode: normal"><path d="M278.74791,176.48318c0,10.6272 -7.57125,19.2742 -16.87621,19.2742h-43.70479c-9.30432,0 -16.87428,-8.64626 -16.87428,-19.2742c0,-10.62794 7.56932,-19.2742 16.87428,-19.2742h43.70479c9.30496,0 16.87557,8.64552 16.87621,19.2742z" fill="url(#color-1)"/><path d="M275.84075,176.48171c0,8.81214 -6.25387,15.95444 -13.96906,15.95444h-43.70479c-7.71455,0 -13.96777,-7.14231 -13.96777,-15.95444v0c0,-8.81066 6.25322,-15.95371 13.96777,-15.95371h43.70479c7.71455,0 13.96906,7.14304 13.96906,15.95371z" fill="url(#color-2)"/><text transform="translate(210.33285,184.0659) scale(0.5,0.5)" font-size="40" xml:space="preserve" fill="#000000" fill-rule="nonzero" stroke="none" stroke-width="1" stroke-linecap="butt" stroke-linejoin="miter" stroke-miterlimit="10" stroke-dasharray="" stroke-dashoffset="0" font-family="Sans Serif" font-weight="normal" text-anchor="start" style="mix-blend-mode: normal"><tspan x="0" dy="0">IP設定</tspan></text></g></g></svg>