<svg id="レイヤー_1" data-name="レイヤー 1" xmlns="http://www.w3.org/2000/svg" viewBox="0 0 374 360"><defs><style>.cls-1{fill:#fff;stroke:#f7f8f8;}.cls-1,.cls-6{stroke-miterlimit:10;}.cls-2{fill:#00b0cb;}.cls-3{fill:#c8da33;}.cls-4{fill:#fabe00;}.cls-5{fill:#eb6450;}.cls-6{fill:none;stroke:#efefef;}</style></defs><title>toio-vp_tc-mat-back_v1.0.1</title><rect class="cls-1" y="-7" width="374" height="374" rx="5.67"/><rect class="cls-1" x="0.52" y="-6.48" width="372.96" height="372.96" rx="5.17" transform="translate(367 -7) rotate(90)"/><rect class="cls-2" x="47.17" y="0.07" width="38.83" height="38.83" rx="2.26"/><rect class="cls-2" x="167.58" y="40.21" width="38.83" height="38.83" rx="2.26"/><rect class="cls-2" x="247.85" y="40.21" width="38.83" height="38.83" rx="2.26"/><rect class="cls-2" x="7.04" y="120.45" width="38.83" height="38.83" rx="2.26"/><rect class="cls-2" x="247.85" y="120.48" width="38.83" height="38.83" rx="2.26"/><rect class="cls-2" x="167.75" y="200.68" width="38.83" height="38.83" rx="2.26"/><rect class="cls-2" x="87.31" y="200.68" width="38.83" height="38.83" rx="2.26"/><rect class="cls-2" x="287.99" y="240.89" width="38.83" height="38.83" rx="2.26"/><rect class="cls-2" x="167.58" y="281.03" width="38.83" height="38.83" rx="2.26"/><rect class="cls-2" x="7.04" y="280.99" width="38.83" height="38.83" rx="2.26"/><rect class="cls-3" x="7.04" y="40.21" width="38.83" height="38.83" rx="2.26"/><rect class="cls-3" x="87.31" y="120.48" width="38.83" height="38.83" rx="2.26"/><rect class="cls-3" x="47.17" y="240.89" width="38.83" height="38.83" rx="2.26"/><rect class="cls-3" x="127.45" y="321.17" width="38.83" height="38.83" rx="2.26"/><rect class="cls-3" x="207.72" y="80.31" width="38.83" height="38.83" rx="2.26"/><rect class="cls-3" x="207.72" y="160.58" width="38.83" height="38.83" rx="2.26"/><rect class="cls-3" x="207.72" y="240.86" width="38.83" height="38.83" rx="2.26"/><rect class="cls-3" x="287.99" y="80.35" width="38.83" height="38.83" rx="2.26"/><rect class="cls-3" x="287.99" y="160.62" width="38.83" height="38.83" rx="2.26"/><rect class="cls-3" x="287.99" y="321.17" width="38.83" height="38.83" rx="2.26"/><rect class="cls-4" x="47.17" y="80.35" width="38.83" height="38.83" rx="2.26"/><rect class="cls-4" x="7.04" y="200.68" width="38.83" height="38.83" rx="2.26"/><rect class="cls-4" x="127.44" y="0.07" width="38.83" height="38.83" rx="2.26"/><rect class="cls-4" x="127.45" y="80.31" width="38.83" height="38.83" rx="2.26"/><rect class="cls-4" x="127.45" y="160.62" width="38.83" height="38.83" rx="2.26"/><rect class="cls-4" x="247.86" y="200.68" width="38.83" height="38.83" rx="2.26"/><rect class="cls-4" x="207.72" y="321.17" width="38.83" height="38.83" rx="2.26"/><rect class="cls-4" x="328.13" y="40.21" width="38.83" height="38.83" rx="2.26"/><rect class="cls-4" x="328.13" y="281.03" width="38.83" height="38.83" rx="2.26"/><rect class="cls-4" x="87.31" y="281.03" width="38.83" height="38.83" rx="2.26"/><rect class="cls-5" x="47.17" y="160.58" width="38.83" height="38.83" rx="2.26"/><rect class="cls-5" x="47.17" y="321.17" width="38.83" height="38.83" rx="2.26"/><rect class="cls-5" x="127.44" y="240.86" width="38.83" height="38.83" rx="2.26"/><rect class="cls-5" x="247.85" y="281.03" width="38.83" height="38.83" rx="2.26"/><rect class="cls-5" x="328.13" y="200.76" width="38.83" height="38.83" rx="2.26"/><rect class="cls-5" x="167.75" y="120.48" width="38.83" height="38.83" rx="2.26"/><rect class="cls-5" x="328.13" y="120.48" width="38.83" height="38.83" rx="2.26"/><rect class="cls-5" x="87.31" y="40.21" width="38.83" height="38.83" rx="2.26"/><rect class="cls-5" x="207.72" width="38.83" height="38.83" rx="2.26"/><rect class="cls-5" x="287.99" y="0.07" width="38.83" height="38.83" rx="2.26"/><rect class="cls-6" x="7.04" y="0.07" width="360" height="360"/></svg>