<svg id="レイヤー_1" data-name="レイヤー 1" xmlns="http://www.w3.org/2000/svg" viewBox="0 0 80 80"><defs><style>.cls-1{fill:#e88283;}.cls-2{fill:none;}</style></defs><title>Scratch</title><polygon class="cls-1" points="61.148 63.261 59.022 60.382 56.896 57.504 54.765 54.644 52.598 51.765 50.467 48.886 48.341 45.975 49.633 42.539 50.919 39.104 52.21 35.643 53.525 32.201 54.811 28.74 56.103 25.253 57.395 21.817 58.681 18.356 58.345 18.356 58.026 18.33 57.684 18.33 57.302 18.33 56.983 18.33 56.647 18.278 56.306 18.278 55.97 18.278 55.605 18.556 54.973 19.061 54.359 19.54 53.479 20.277 52.39 21.157 51.307 22.044 50.015 23.079 48.59 24.192 47.165 25.304 45.67 26.469 44.135 27.73 42.548 28.94 40.967 30.156 39.426 31.321 37.845 32.531 36.327 33.644 34.925 34.627 33.541 35.643 32.255 36.523 31.166 37.234 30.083 37.939 29.156 38.444 28.565 38.67 28.565 35.235 28.565 31.774 28.565 28.339 28.565 24.851 28.565 21.39 28.565 17.948 28.565 14.461 28.565 11 27.459 11 26.37 11 25.24 11 24.151 11 23.022 11 21.938 11 20.826 11 19.743 11 19.743 18.227 19.743 25.453 19.743 32.66 19.743 39.887 19.743 47.113 19.743 54.314 19.743 61.592 19.743 68.825 20.826 68.825 21.938 68.825 23.022 68.825 24.151 68.825 25.24 68.825 26.37 68.825 27.459 68.825 28.565 68.825 28.565 66.166 28.565 63.514 28.565 60.887 28.565 58.235 28.565 55.582 28.565 52.975 28.565 50.322 28.565 47.721 28.791 47.773 29.405 48.174 30.419 48.834 31.415 49.436 32.753 50.322 34.334 51.332 35.875 52.373 37.659 53.531 39.542 54.747 41.419 56.009 43.429 57.296 45.375 58.61 47.344 59.93 49.291 61.217 51.15 62.479 52.981 63.695 54.678 64.801 56.149 65.791 57.551 66.774 58.773 67.557 59.654 68.114 60.47 68.67 60.945 69 61.531 69 62.052 69 62.643 69 63.187 69 63.726 69 64.317 69 64.861 69 65.4 69 63.274 66.121 61.148 63.261"/><rect class="cls-2" width="80" height="80"/></svg>